<?xml version="1.0" encoding="utf-8"?>
<!-- Generator: Adobe Illustrator 22.1.0, SVG Export Plug-In . SVG Version: 6.00 Build 0)  -->
<svg version="1.1" xmlns="http://www.w3.org/2000/svg" xmlns:xlink="http://www.w3.org/1999/xlink" x="0px" y="0px"
	 viewBox="0 0 106 38" style="enable-background:new 0 0 106 38;" xml:space="preserve">
<style type="text/css">
	.st0{display:none;}
	.st1{display:inline;}
	.st2{opacity:0.1;fill:#DE0613;}
	.st3{fill:#ECEFF3;}
	.st4{fill:#1F193D;}
	.st5{fill:#FF2244;}
	.st6{fill:#F597B2;}
	.st7{fill:#9482EE;}
	.st8{fill:#F0CFDA;}
	.st9{fill:#CCCAEB;}
	.st10{fill:#666666;}
	.st11{fill:#1A2028;}
	.st12{fill:#313166;}
	.st13{fill:#710EFF;}
	.st14{fill:#F3F3F3;}
	.st15{fill:#4A5C70;}
	.st16{opacity:0.19;}
	.st17{fill:none;stroke:#FF2244;stroke-miterlimit:10;}
	.st18{fill:#FFFFFF;}
	.st19{fill:#F1F3F7;}
	.st20{opacity:0.8;}
	.st21{fill:#6D6E71;}
	.st22{fill:none;stroke:#FFFFFF;stroke-miterlimit:10;}
	.st23{fill:#F1F3F7;stroke:#9482EE;stroke-width:0.75;stroke-miterlimit:10;}
	.st24{fill:none;stroke:#9482EE;stroke-width:0.7308;stroke-miterlimit:10;}
	.st25{fill:none;stroke:#FF2244;stroke-width:1.25;stroke-linejoin:round;stroke-miterlimit:10;}
	.st26{fill:none;stroke:#FFFFFF;stroke-width:1.1837;stroke-miterlimit:10;}
	.st27{fill:none;}
	.st28{opacity:0.8;fill:none;stroke:#FFFFFF;stroke-width:0.5;stroke-miterlimit:10;}
	.st29{fill:none;stroke:#FF2244;stroke-width:0.8698;stroke-miterlimit:10;}
	.st30{fill:none;stroke:#FF845E;stroke-width:0.8038;stroke-miterlimit:10;}
	.st31{fill:none;stroke:#FF2244;stroke-width:1.3456;stroke-linejoin:round;stroke-miterlimit:10;}
	.st32{fill:none;stroke:#FF2244;stroke-width:1.6354;stroke-linejoin:round;stroke-miterlimit:10;}
	.st33{fill:none;stroke:#FF2244;stroke-width:1.2391;stroke-linejoin:round;stroke-miterlimit:10;}
	.st34{fill:none;stroke:#FF2244;stroke-width:1.1774;stroke-linejoin:round;stroke-miterlimit:10;}
	.st35{fill:none;stroke:#FFFFFF;stroke-width:0.8309;stroke-miterlimit:10;}
	.st36{fill:#F7F5F6;}
	.st37{fill:none;stroke:#1F193D;stroke-width:0.4566;stroke-miterlimit:10;}
	.st38{opacity:0.8;fill:none;stroke:#1F193D;stroke-width:0.5;stroke-miterlimit:10;}
	.st39{fill:#F1F3F7;stroke:#9482EE;stroke-width:0.4538;stroke-miterlimit:10;}
</style>
<g id="grid">
</g>
<g id="_x32_4_Grid_Col_1_" class="st0">
</g>
<g id="BACK">
</g>
<g id="Artwork">
	<path class="st23" d="M51.5,8c3.5,0,6.8,1.4,9.3,3.8c2.5,2.5,3.8,5.8,3.8,9.3c0,3.5-1.4,6.8-3.8,9.3c-2.5,2.5-5.8,3.8-9.3,3.8
		s-6.8-1.4-9.3-3.8c-2.5-2.5-3.8-5.8-3.8-9.3c0-3.5,1.4-6.8,3.8-9.3C44.8,9.3,48,8,51.5,8 M51.5,27.1 M57.6,21.1 M51.5,7.8
		c-7.3,0-13.2,5.9-13.2,13.2c0,2,0.5,3.9,1.3,5.7c0.7,1.5,1.6,2.8,2.8,3.9c2.4,2.3,5.6,3.7,9.2,3.7c7.3,0,13.2-5.9,13.2-13.2
		C64.8,13.7,58.9,7.8,51.5,7.8L51.5,7.8z M51.5,27c-2.6,0-4.8-1.6-5.6-3.9c-0.2-0.6-0.4-1.3-0.4-2c0-3.3,2.7-5.9,5.9-5.9
		c3.3,0,5.9,2.7,5.9,5.9C57.5,24.3,54.8,27,51.5,27L51.5,27z"/>
	<g>
		<path class="st7" d="M39.5,15.4H12.3v3.8h25.9"/>
		<path class="st7" d="M39.6,26.6H12.3v-3.5h25.8"/>
	</g>
	<polyline class="st7" points="46,19.2 90.8,19.2 90.8,15.4 90.8,15.4 49.9,15.4 	"/>
	<polyline class="st7" points="46,23.1 90.6,23.1 90.6,26.6 49.3,26.6 	"/>
	<path class="st24" d="M51.5,15.1c-3.3,0-5.9,2.7-5.9,5.9s2.7,5.9,5.9,5.9"/>
	<polyline class="st7" points="49.3,26.6 47.1,25 46,23.1 	"/>
	<polyline class="st7" points="46,19.2 46.9,17.1 49.9,15.4 	"/>
</g>
</svg>
