<?xml version="1.0" encoding="utf-8"?>
<!-- Generator: Adobe Illustrator 16.0.0, SVG Export Plug-In . SVG Version: 6.00 Build 0)  -->
<!DOCTYPE svg PUBLIC "-//W3C//DTD SVG 1.1//EN" "http://www.w3.org/Graphics/SVG/1.1/DTD/svg11.dtd">
<svg version="1.1" id="Layer_1" xmlns="http://www.w3.org/2000/svg" xmlns:xlink="http://www.w3.org/1999/xlink" x="0px" y="0px"
	 width="11.933px" height="4.199px" viewBox="1.633 5.717 11.933 4.199" enable-background="new 1.633 5.717 11.933 4.199"
	 xml:space="preserve">
<g id="grid">
</g>
<g id="_x32_4_Grid_Col_1_" display="none">
</g>
<g id="BACK">
</g>
<g id="Artwork">
	<path fill="#9482EE" d="M6.1,6.35L6.083,6.333C5.667,5.917,5.133,5.717,4.6,5.717s-1.083,0.2-1.483,0.617L3.1,6.35L1.633,7.817
		L3.1,9.283L3.117,9.3C3.533,9.717,4.067,9.916,4.6,9.916S5.683,9.717,6.083,9.3L6.1,9.283l1.466-1.466L6.1,6.35z M5.333,8.566
		c-0.417,0.417-1.083,0.417-1.483,0c-0.4-0.417-0.417-1.083,0-1.483c0.417-0.4,1.083-0.417,1.483,0
		C5.75,7.483,5.75,8.15,5.333,8.566z"/>
	<path fill="#9482EE" d="M12.1,6.35l-0.016-0.017c-0.418-0.417-0.951-0.617-1.484-0.617s-1.083,0.2-1.482,0.617L9.1,6.35
		L7.633,7.817L9.1,9.283L9.117,9.3c0.416,0.417,0.949,0.616,1.482,0.616s1.084-0.199,1.484-0.616L12.1,9.283l1.467-1.466L12.1,6.35z
		 M11.334,8.566c-0.418,0.417-1.084,0.417-1.484,0c-0.399-0.417-0.416-1.083,0-1.483c0.417-0.4,1.084-0.417,1.484,0
		C11.75,7.483,11.75,8.15,11.334,8.566z"/>
</g>
</svg>
