<?xml version="1.0" encoding="utf-8"?>
<!-- Generator: Adobe Illustrator 16.0.0, SVG Export Plug-In . SVG Version: 6.00 Build 0)  -->
<!DOCTYPE svg PUBLIC "-//W3C//DTD SVG 1.1//EN" "http://www.w3.org/Graphics/SVG/1.1/DTD/svg11.dtd">
<svg version="1.1" id="Layer_1" xmlns="http://www.w3.org/2000/svg" xmlns:xlink="http://www.w3.org/1999/xlink" x="0px" y="0px"
	 width="10.465px" height="3.436px" viewBox="2.582 5.889 10.465 3.436" enable-background="new 2.582 5.889 10.465 3.436"
	 xml:space="preserve">
<g id="grid">
</g>
<g id="_x32_4_Grid_Col_1_" display="none">
</g>
<g id="BACK">
</g>
<g id="Artwork">
	<g>
		<polygon fill="#9482EE" points="3.723,9.324 2.582,9.324 2.582,5.889 3.723,5.889 3.723,6.964 		"/>
	</g>
	<g>
		<polygon fill="#9482EE" points="6.031,9.324 4.89,9.324 4.89,5.889 6.031,5.889 6.031,6.964 		"/>
	</g>
	<path fill="#9482EE" d="M13.047,5.889v1.666c-0.472,0-0.904,0.197-1.245,0.524c-0.328,0.328-0.524,0.774-0.524,1.246H9.625
		C9.625,8.865,9.717,8.42,9.9,8c0.17-0.407,0.42-0.787,0.734-1.102c0.314-0.315,0.682-0.564,1.102-0.734
		C12.143,5.98,12.588,5.889,13.047,5.889"/>
	<path fill="#9482EE" d="M9.611,7.554V5.889H7.894l0,0c-0.958,0-1.718,0.773-1.718,1.718c0,0.958,0.774,1.718,1.718,1.718
		s1.718-0.76,1.718-1.718C9.611,7.593,9.611,7.567,9.611,7.554z M7.894,8.394c-0.433,0-0.787-0.354-0.787-0.787
		c0-0.433,0.354-0.787,0.787-0.787c0.433,0,0.786,0.354,0.786,0.787C8.68,8.04,8.326,8.394,7.894,8.394z"/>
</g>
</svg>
