<?xml version="1.0" encoding="utf-8"?>
<!-- Generator: Adobe Illustrator 22.1.0, SVG Export Plug-In . SVG Version: 6.00 Build 0)  -->
<svg version="1.1" xmlns="http://www.w3.org/2000/svg" xmlns:xlink="http://www.w3.org/1999/xlink" x="0px" y="0px"
	 viewBox="0 0 524 636.6" style="enable-background:new 0 0 524 636.6;" xml:space="preserve">
<style type="text/css">
	.st0{display:none;}
	.st1{display:inline;}
	.st2{opacity:0.1;fill:#DE0613;}
	.st3{fill:#ECEFF3;}
	.st4{fill:#1F193D;}
	.st5{fill:#FF2244;}
	.st6{fill:#F597B2;}
	.st7{fill:#9482EE;}
	.st8{fill:#F0CFDA;}
	.st9{fill:#CCCAEB;}
	.st10{fill:#666666;}
	.st11{fill:#1A2028;}
	.st12{fill:#313166;}
	.st13{fill:#710EFF;}
	.st14{fill:#F3F3F3;}
	.st15{fill:#4A5C70;}
	.st16{opacity:0.19;}
	.st17{fill:none;stroke:#FF2244;stroke-miterlimit:10;}
	.st18{fill:#FFFFFF;}
	.st19{fill:#F1F3F7;}
	.st20{opacity:0.8;}
	.st21{fill:#6D6E71;}
	.st22{fill:none;stroke:#FFFFFF;stroke-miterlimit:10;}
	.st23{fill:#F1F3F7;stroke:#9482EE;stroke-width:0.75;stroke-miterlimit:10;}
	.st24{fill:none;stroke:#9482EE;stroke-width:0.7308;stroke-miterlimit:10;}
	.st25{fill:none;stroke:#FF2244;stroke-width:1.25;stroke-linejoin:round;stroke-miterlimit:10;}
	.st26{fill:none;stroke:#FFFFFF;stroke-width:1.1837;stroke-miterlimit:10;}
	.st27{fill:none;}
	.st28{opacity:0.8;fill:none;stroke:#FFFFFF;stroke-width:0.5;stroke-miterlimit:10;}
	.st29{fill:none;stroke:#FF2244;stroke-width:0.8698;stroke-miterlimit:10;}
	.st30{fill:none;stroke:#FF845E;stroke-width:0.8038;stroke-miterlimit:10;}
	.st31{fill:none;stroke:#FF2244;stroke-width:1.3456;stroke-linejoin:round;stroke-miterlimit:10;}
	.st32{fill:none;stroke:#FF2244;stroke-width:1.6354;stroke-linejoin:round;stroke-miterlimit:10;}
	.st33{fill:none;stroke:#FF2244;stroke-width:1.2391;stroke-linejoin:round;stroke-miterlimit:10;}
	.st34{fill:none;stroke:#FF2244;stroke-width:1.1774;stroke-linejoin:round;stroke-miterlimit:10;}
	.st35{fill:none;stroke:#FFFFFF;stroke-width:0.8309;stroke-miterlimit:10;}
	.st36{fill:#F7F5F6;}
	.st37{fill:none;stroke:#1F193D;stroke-width:0.4566;stroke-miterlimit:10;}
	.st38{opacity:0.8;fill:none;stroke:#1F193D;stroke-width:0.5;stroke-miterlimit:10;}
	.st39{fill:#F1F3F7;stroke:#9482EE;stroke-width:0.4538;stroke-miterlimit:10;}
</style>
<g id="grid">
</g>
<g id="_x32_4_Grid_Col_1_" class="st0">
</g>
<g id="BACK">
</g>
<g id="Artwork">
	<g>
		<path class="st9" d="M465.8,369h-15.4V252.6h15.4V369 M466.5,369.7V251.9h-16.8v117.7H466.5L466.5,369.7z"/>
		<path class="st9" d="M499.4,369H484V252.6h15.4V369 M500.1,369.7V251.9h-16.8v117.7H500.1L500.1,369.7z"/>
		<path class="st9" d="M398.5,369h-15.4V252.6h15.4V369 M399.2,369.7V251.9h-16.8v117.7H399.2L399.2,369.7z"/>
		<path class="st9" d="M432.1,369h-15.4V252.6h15.4V369 M432.8,369.7V251.9H416v117.7H432.8L432.8,369.7z"/>
	</g>
	<g>
		<path class="st9" d="M465.8,486h-15.4V369.7h15.4V486 M466.5,486.7V369h-16.8v117.7H466.5L466.5,486.7z"/>
		<path class="st9" d="M499.4,486H484V369.7h15.4V486 M500.1,486.7V369h-16.8v117.7H500.1L500.1,486.7z"/>
		<path class="st9" d="M398.5,486h-15.4V369.7h15.4V486 M399.2,486.7V369h-16.8v117.7H399.2L399.2,486.7z"/>
		<path class="st9" d="M432.1,486h-15.4V369.7h15.4V486 M432.8,486.7V369H416v117.7H432.8L432.8,486.7z"/>
	</g>
	<g>
		<path class="st9" d="M460.6,252.7h39.6V134.9h-39.6v0.7h38.9V252h-38.9V252.7z M383.1,252V135.6h38.9v-0.7h-39.6v114v3.7h39.6V252
			H383.1"/>
		<rect x="460.6" y="135.5" class="st9" width="0.7" height="116.7"/>
		<rect x="421.4" y="135.5" class="st9" width="0.7" height="116.7"/>
	</g>
	<g>
		<path class="st9" d="M343.5,486.8H383V369h-39.6v0.7h38.9v116.3h-38.9V486.8z M266,486.1V369.7h38.9V369h-39.6v117.7l0,0h39.6
			v-0.7H266"/>
		<rect x="343.5" y="369.6" class="st9" width="0.7" height="116.7"/>
		<rect x="304.2" y="369.6" class="st9" width="0.7" height="116.7"/>
	</g>
	<path class="st9" d="M324.2,369c-15.5,0-30.1-6.1-41.1-17c-11-11-17-25.6-17-41.1c0-15.5,6.1-30.1,17-41.1c11-11,25.6-17,41.1-17
		s30.1,6.1,41.1,17c11,11,17,25.6,17,41.1v58.1H326h0l0,0C325.3,369,324.7,369,324.2,369 M324.2,283.7c-14.9,0-27.1,12.1-27.1,27.1
		s12.1,27.1,27.1,27.1c14.9,0,27.1-12.1,27.1-27.1S339.1,283.7,324.2,283.7 M324.2,369.7c0.6,0,1.2,0,1.8,0h57.1v-58.8v0v0
		c0-32.5-26.4-58.9-58.9-58.9s-58.9,26.4-58.9,58.9C265.3,343.3,291.7,369.7,324.2,369.7L324.2,369.7z M324.2,284.4
		c14.6,0,26.4,11.8,26.4,26.4c0,14.6-11.8,26.4-26.4,26.4s-26.4-11.8-26.4-26.4C297.8,296.2,309.6,284.4,324.2,284.4L324.2,284.4z"
		/>
	<path class="st9" d="M382.3,545c0,15.5-6.1,30.1-17,41.1c-11,11-25.6,17-41.1,17c-15.5,0-30.1-6.1-41.1-17c-11-11-17-25.6-17-41.1
		c0-15.5,6.1-30.1,17-41.1c11-11,25.6-17,41.1-17h58.1v56.4v0l0,0C382.3,543.9,382.3,544.5,382.3,545 M297.1,545
		c0,14.9,12.1,27.1,27.1,27.1c14.9,0,27.1-12.1,27.1-27.1s-12.1-27.1-27.1-27.1C309.2,517.9,297.1,530.1,297.1,545 M383,545
		c0-0.6,0-1.2,0-1.8v-57.1h-58.8h0h0c-32.5,0-58.9,26.4-58.9,58.9s26.4,58.9,58.9,58.9C356.7,603.9,383,577.5,383,545L383,545z
		 M297.8,545c0-14.6,11.8-26.4,26.4-26.4c14.6,0,26.4,11.8,26.4,26.4s-11.8,26.4-26.4,26.4C309.6,571.4,297.8,559.6,297.8,545
		L297.8,545z"/>
	<path class="st9" d="M382.3,194.5c0,15.5-6.1,30.1-17,41.1c-11,11-25.6,17-41.1,17c-15.5,0-30.1-6.1-41.1-17
		c-11-11-17-25.6-17-41.1s6.1-30.1,17-41.1c11-11,25.6-17,41.1-17h58.1v56.4v0l0,0C382.3,193.4,382.3,194,382.3,194.5 M297.1,194.5
		c0,14.9,12.1,27.1,27.1,27.1c14.9,0,27.1-12.1,27.1-27.1c0-14.9-12.1-27.1-27.1-27.1C309.2,167.5,297.1,179.6,297.1,194.5
		 M383,194.5c0-0.6,0-1.2,0-1.8v-57.1h-58.8h0h0c-32.5,0-58.9,26.4-58.9,58.9s26.4,58.9,58.9,58.9C356.7,253.4,383,227,383,194.5
		L383,194.5z M297.8,194.5c0-14.6,11.8-26.4,26.4-26.4c14.6,0,26.4,11.8,26.4,26.4c0,14.6-11.8,26.4-26.4,26.4
		C309.6,220.9,297.8,209.1,297.8,194.5L297.8,194.5z"/>
	<path class="st9" d="M265.3,193.8c0,15.5-6.1,30.1-17,41.1c-11,11-25.6,17-41.1,17c-15.5,0-30.1-6.1-41.1-17
		c-11-11-17-25.6-17-41.1s6.1-30.1,17-41.1c11-11,25.6-17,41.1-17c15.5,0,30.1,6.1,41.1,17C259.3,163.7,265.3,178.3,265.3,193.8
		 M180.1,193.8c0,14.9,12.1,27.1,27.1,27.1s27.1-12.1,27.1-27.1s-12.1-27.1-27.1-27.1S180.1,178.9,180.1,193.8 M266,193.8
		c0-32.5-26.4-58.9-58.9-58.9c-32.5,0-58.9,26.4-58.9,58.9s26.4,58.9,58.9,58.9C239.7,252.7,266,226.3,266,193.8L266,193.8z
		 M180.8,193.8c0-14.6,11.8-26.4,26.4-26.4c14.6,0,26.4,11.8,26.4,26.4c0,14.6-11.8,26.4-26.4,26.4
		C192.6,220.2,180.8,208.4,180.8,193.8L180.8,193.8z"/>
	<path class="st9" d="M265.3,252.7v56.4c-15.9,0.2-30.9,6.5-42.2,17.7c-11.3,11.3-17.6,26.2-17.7,42.2H149
		c0.1-15.6,3.2-30.6,9.2-44.9c5.9-13.9,14.3-26.5,25.1-37.2c10.7-10.7,23.3-19.2,37.2-25.1C234.7,255.9,249.7,252.8,265.3,252.7
		 M266,252c-65,0-117.7,52.7-117.7,117.7h57.8c0-33.1,26.8-59.9,59.9-59.9V252L266,252z"/>
	<path class="st9" d="M499.3,18.7v56.4c-15.9,0.2-30.9,6.5-42.2,17.7c-11.3,11.3-17.6,26.2-17.7,42.2h-56.4
		c0.1-15.6,3.2-30.6,9.2-44.9c5.9-13.9,14.3-26.5,25.1-37.2c10.7-10.7,23.3-19.2,37.2-25.1C468.6,21.9,483.7,18.8,499.3,18.7
		 M500,18c-65,0-117.7,52.7-117.7,117.7h57.8c0-33.1,26.8-59.9,59.9-59.9V18L500,18z"/>
	<path class="st9" d="M149,486.1v-56.4c15.9-0.2,30.9-6.5,42.2-17.7s17.6-26.2,17.7-42.2h56.4c-0.1,15.6-3.2,30.6-9.2,44.9
		c-5.9,13.9-14.3,26.5-25.1,37.2c-10.7,10.7-23.3,19.2-37.2,25.1C179.6,482.9,164.5,486,149,486.1 M148.3,486.8
		c65,0,117.7-52.7,117.7-117.7h-57.8c0,33.1-26.8,59.9-59.9,59.9V486.8L148.3,486.8z"/>
	<path class="st9" d="M32.3,369.7h56.4c0.2,15.9,6.5,30.9,17.7,42.2c11.3,11.3,26.2,17.6,42.2,17.7v56.4
		c-15.6-0.1-30.6-3.2-44.9-9.2c-13.9-5.9-26.5-14.3-37.2-25.1c-10.7-10.7-19.2-23.3-25.1-37.2C35.5,400.4,32.4,385.3,32.3,369.7
		 M31.6,369c0,65,52.7,117.7,117.7,117.7v-57.8c-33.1,0-59.9-26.8-59.9-59.9H31.6L31.6,369z"/>
	<g>
		<path class="st9" d="M499.4,486.7v116.3H383.1c0.1-15.6,3.2-30.6,9.2-44.9c5.9-13.9,14.3-26.5,25.1-37.2s23.3-19.2,37.2-25.1
			C468.8,489.9,483.9,486.8,499.4,486.7 M500.1,486c-65,0-117.7,52.7-117.7,117.7h117.7V486L500.1,486z"/>
	</g>
	<g>
		<path class="st4" d="M499.4,369.7c-0.2,15.3-6.2,29.6-17,40.4c-11,11-25.6,17-41.1,17c-15.5,0-30.1-6.1-41.1-17
			c-10.8-10.8-16.9-25.2-17-40.4H499.4"/>
		<path class="st9" d="M499.4,369.7c-0.2,15.3-6.2,29.6-17,40.4c-11,11-25.6,17-41.1,17c-15.5,0-30.1-6.1-41.1-17
			c-10.8-10.8-16.9-25.2-17-40.4H499.4 M500.1,369H382.4c0,32.5,26.4,58.9,58.9,58.9S500.1,401.5,500.1,369L500.1,369z"/>
	</g>
	<g>
		<path class="st4" d="M383.1,369c0.2-15.3,6.2-29.6,17-40.4c11-11,25.6-17,41.1-17c15.5,0,30.1,6.1,41.1,17
			c10.8,10.8,16.9,25.2,17,40.4H383.1"/>
		<path class="st9" d="M383.1,369c0.2-15.3,6.2-29.6,17-40.4c11-11,25.6-17,41.1-17c15.5,0,30.1,6.1,41.1,17
			c10.8,10.8,16.9,25.2,17,40.4H383.1 M382.4,369.7h117.7c0-32.5-26.4-58.9-58.9-58.9S382.4,337.2,382.4,369.7L382.4,369.7z"/>
	</g>
	<g>
		<path class="st9" d="M265.3,520.4v15.4H149v-15.4H265.3 M266,519.7H148.3v16.8H266V519.7L266,519.7z"/>
		<path class="st9" d="M265.3,486.8v15.4H149v-15.4H265.3 M266,486.1H148.3v16.8H266V486.1L266,486.1z"/>
		<path class="st9" d="M265.3,587.7v15.4H149v-15.4H265.3 M266,587H148.3v16.8H266V587L266,587z"/>
		<path class="st9" d="M265.3,554v15.4H149V554H265.3 M266,553.3H148.3v16.8H266V553.3L266,553.3z"/>
	</g>
	<g>
		<path class="st4" d="M265.3,603.1c-15.3-0.2-29.6-6.2-40.4-17c-11-11-17-25.6-17-41.1c0-15.5,6.1-30.1,17-41.1
			c10.8-10.8,25.2-16.9,40.4-17V603.1"/>
		<path class="st9" d="M265.3,603.1c-15.3-0.2-29.6-6.2-40.4-17c-11-11-17-25.6-17-41.1c0-15.5,6.1-30.1,17-41.1
			c10.8-10.8,25.2-16.9,40.4-17V603.1 M266,603.8V486.1c-32.5,0-58.9,26.4-58.9,58.9C207.1,577.4,233.5,603.8,266,603.8L266,603.8z"
			/>
	</g>
</g>
</svg>
