<?xml version="1.0" encoding="utf-8"?>
<!-- Generator: Adobe Illustrator 22.1.0, SVG Export Plug-In . SVG Version: 6.00 Build 0)  -->
<svg version="1.1" xmlns="http://www.w3.org/2000/svg" xmlns:xlink="http://www.w3.org/1999/xlink" x="0px" y="0px"
	 viewBox="0 0 748 598" style="enable-background:new 0 0 748 598;" xml:space="preserve">
<style type="text/css">
	.st0{display:none;}
	.st1{display:inline;}
	.st2{opacity:0.1;fill:#DE0613;}
	.st3{fill:#ECEFF3;}
	.st4{fill:#1F193D;}
	.st5{fill:#FF2244;}
	.st6{fill:#F597B2;}
	.st7{fill:#9482EE;}
	.st8{fill:#F0CFDA;}
	.st9{fill:#CCCAEB;}
	.st10{fill:#666666;}
	.st11{fill:#1A2028;}
	.st12{fill:#313166;}
	.st13{fill:#710EFF;}
	.st14{fill:#F3F3F3;}
	.st15{fill:#4A5C70;}
	.st16{opacity:0.19;}
	.st17{fill:none;stroke:#FF2244;stroke-miterlimit:10;}
	.st18{fill:#FFFFFF;}
	.st19{fill:#F1F3F7;}
	.st20{opacity:0.8;}
	.st21{fill:#6D6E71;}
	.st22{fill:none;stroke:#FFFFFF;stroke-miterlimit:10;}
	.st23{fill:#F1F3F7;stroke:#9482EE;stroke-width:0.75;stroke-miterlimit:10;}
	.st24{fill:none;stroke:#9482EE;stroke-width:0.7308;stroke-miterlimit:10;}
	.st25{fill:none;stroke:#FF2244;stroke-width:1.25;stroke-linejoin:round;stroke-miterlimit:10;}
	.st26{fill:none;stroke:#FFFFFF;stroke-width:1.1837;stroke-miterlimit:10;}
	.st27{fill:none;}
	.st28{opacity:0.8;fill:none;stroke:#FFFFFF;stroke-width:0.5;stroke-miterlimit:10;}
	.st29{fill:none;stroke:#FF2244;stroke-width:0.8698;stroke-miterlimit:10;}
	.st30{fill:none;stroke:#FF845E;stroke-width:0.8038;stroke-miterlimit:10;}
	.st31{fill:none;stroke:#FF2244;stroke-width:1.3456;stroke-linejoin:round;stroke-miterlimit:10;}
	.st32{fill:none;stroke:#FF2244;stroke-width:1.6354;stroke-linejoin:round;stroke-miterlimit:10;}
	.st33{fill:none;stroke:#FF2244;stroke-width:1.2391;stroke-linejoin:round;stroke-miterlimit:10;}
	.st34{fill:none;stroke:#FF2244;stroke-width:1.1774;stroke-linejoin:round;stroke-miterlimit:10;}
	.st35{fill:none;stroke:#FFFFFF;stroke-width:0.8309;stroke-miterlimit:10;}
	.st36{fill:#F7F5F6;}
	.st37{fill:none;stroke:#1F193D;stroke-width:0.4566;stroke-miterlimit:10;}
	.st38{opacity:0.8;fill:none;stroke:#1F193D;stroke-width:0.5;stroke-miterlimit:10;}
	.st39{fill:#F1F3F7;stroke:#9482EE;stroke-width:0.4538;stroke-miterlimit:10;}
</style>
<g id="grid">
</g>
<g id="_x32_4_Grid_Col_1_" class="st0">
</g>
<g id="BACK">
</g>
<g id="Artwork">
	<g class="st16">
		<g>
			<circle class="st11" cx="722.3" cy="181.7" r="1.8"/>
		</g>
		<g>
			<circle class="st11" cx="722.3" cy="210" r="1.8"/>
		</g>
		<g>
			<circle class="st11" cx="722.3" cy="238.2" r="1.8"/>
		</g>
		<g>
			<circle class="st11" cx="722.3" cy="266.5" r="1.8"/>
		</g>
		<g>
			<circle class="st11" cx="722.3" cy="294.7" r="1.8"/>
		</g>
		<g>
			<circle class="st11" cx="722.3" cy="323" r="1.8"/>
		</g>
		<g>
			<circle class="st11" cx="722.3" cy="351.2" r="1.8"/>
		</g>
		<g>
			<circle class="st11" cx="722.3" cy="379.5" r="1.8"/>
		</g>
		<g>
			<circle class="st11" cx="722.3" cy="407.7" r="1.8"/>
		</g>
		<g>
			<circle class="st11" cx="722.3" cy="436" r="1.8"/>
		</g>
		<g>
			<circle class="st11" cx="722.3" cy="464.2" r="1.8"/>
		</g>
		<g>
			<circle class="st11" cx="722.3" cy="492.5" r="1.8"/>
		</g>
		<g>
			<circle class="st11" cx="722.3" cy="520.7" r="1.8"/>
		</g>
		<g>
			<circle class="st11" cx="722.3" cy="549" r="1.8"/>
		</g>
		<g>
			<circle class="st11" cx="722.3" cy="577.3" r="1.8"/>
		</g>
		<g>
			<circle class="st11" cx="694" cy="181.7" r="1.8"/>
		</g>
		<g>
			<circle class="st11" cx="694" cy="210" r="1.8"/>
		</g>
		<g>
			<circle class="st11" cx="694" cy="238.2" r="1.8"/>
		</g>
		<g>
			<circle class="st11" cx="694" cy="266.5" r="1.8"/>
		</g>
		<g>
			<circle class="st11" cx="694" cy="294.7" r="1.8"/>
		</g>
		<g>
			<circle class="st11" cx="694" cy="323" r="1.8"/>
		</g>
		<g>
			<circle class="st11" cx="694" cy="351.2" r="1.8"/>
		</g>
		<g>
			<circle class="st11" cx="694" cy="379.5" r="1.8"/>
		</g>
		<g>
			<circle class="st11" cx="694" cy="407.7" r="1.8"/>
		</g>
		<g>
			<circle class="st11" cx="694" cy="436" r="1.8"/>
		</g>
		<g>
			<circle class="st11" cx="694" cy="464.2" r="1.8"/>
		</g>
		<g>
			<circle class="st11" cx="694" cy="492.5" r="1.8"/>
		</g>
		<g>
			<circle class="st11" cx="694" cy="520.7" r="1.8"/>
		</g>
		<g>
			<circle class="st11" cx="694" cy="549" r="1.8"/>
		</g>
		<g>
			<circle class="st11" cx="694" cy="577.3" r="1.8"/>
		</g>
		<g>
			<circle class="st11" cx="665.8" cy="181.7" r="1.8"/>
		</g>
		<g>
			<circle class="st11" cx="665.8" cy="210" r="1.8"/>
		</g>
		<g>
			<circle class="st11" cx="665.8" cy="238.2" r="1.8"/>
		</g>
		<g>
			<circle class="st11" cx="665.8" cy="266.5" r="1.8"/>
		</g>
		<g>
			<circle class="st11" cx="665.8" cy="294.7" r="1.8"/>
		</g>
		<g>
			<circle class="st11" cx="665.8" cy="323" r="1.8"/>
		</g>
		<g>
			<circle class="st11" cx="665.8" cy="351.2" r="1.8"/>
		</g>
		<g>
			<circle class="st11" cx="665.8" cy="379.5" r="1.8"/>
		</g>
		<g>
			<circle class="st11" cx="665.8" cy="407.7" r="1.8"/>
		</g>
		<g>
			<circle class="st11" cx="665.8" cy="436" r="1.8"/>
		</g>
		<g>
			<circle class="st11" cx="665.8" cy="464.2" r="1.8"/>
		</g>
		<g>
			<circle class="st11" cx="665.8" cy="492.5" r="1.8"/>
		</g>
		<g>
			<circle class="st11" cx="665.8" cy="520.7" r="1.8"/>
		</g>
		<g>
			<circle class="st11" cx="665.8" cy="549" r="1.8"/>
		</g>
		<g>
			<circle class="st11" cx="665.8" cy="577.3" r="1.8"/>
		</g>
		<g>
			<circle class="st11" cx="637.5" cy="181.7" r="1.8"/>
		</g>
		<g>
			<circle class="st11" cx="637.5" cy="210" r="1.8"/>
		</g>
		<g>
			<circle class="st11" cx="637.5" cy="238.2" r="1.8"/>
		</g>
		<g>
			<circle class="st11" cx="637.5" cy="266.5" r="1.8"/>
		</g>
		<g>
			<circle class="st11" cx="637.5" cy="294.7" r="1.8"/>
		</g>
		<g>
			<circle class="st11" cx="637.5" cy="323" r="1.8"/>
		</g>
		<g>
			<circle class="st11" cx="637.5" cy="351.2" r="1.8"/>
		</g>
		<g>
			<circle class="st11" cx="637.5" cy="379.5" r="1.8"/>
		</g>
		<g>
			<circle class="st11" cx="637.5" cy="407.7" r="1.8"/>
		</g>
		<g>
			<circle class="st11" cx="637.5" cy="436" r="1.8"/>
		</g>
		<g>
			<circle class="st11" cx="637.5" cy="464.2" r="1.8"/>
		</g>
		<g>
			<circle class="st11" cx="637.5" cy="492.5" r="1.8"/>
		</g>
		<g>
			<circle class="st11" cx="637.5" cy="520.7" r="1.8"/>
		</g>
		<g>
			<circle class="st11" cx="637.5" cy="549" r="1.8"/>
		</g>
		<g>
			<circle class="st11" cx="637.5" cy="577.3" r="1.8"/>
		</g>
		<g>
			<circle class="st11" cx="609.3" cy="181.7" r="1.8"/>
		</g>
		<g>
			<circle class="st11" cx="609.3" cy="210" r="1.8"/>
		</g>
		<g>
			<circle class="st11" cx="609.3" cy="238.2" r="1.8"/>
		</g>
		<g>
			<circle class="st11" cx="609.3" cy="266.5" r="1.8"/>
		</g>
		<g>
			<circle class="st11" cx="609.3" cy="294.7" r="1.8"/>
		</g>
		<g>
			<circle class="st11" cx="609.3" cy="323" r="1.8"/>
		</g>
		<g>
			<circle class="st11" cx="609.3" cy="351.2" r="1.8"/>
		</g>
		<g>
			<circle class="st11" cx="609.3" cy="379.5" r="1.8"/>
		</g>
		<g>
			<circle class="st11" cx="609.3" cy="407.7" r="1.8"/>
		</g>
		<g>
			<circle class="st11" cx="609.3" cy="436" r="1.8"/>
		</g>
		<g>
			<circle class="st11" cx="609.3" cy="464.2" r="1.8"/>
		</g>
		<g>
			<circle class="st11" cx="609.3" cy="492.5" r="1.8"/>
		</g>
		<g>
			<circle class="st11" cx="609.3" cy="520.7" r="1.8"/>
		</g>
		<g>
			<circle class="st11" cx="609.3" cy="549" r="1.8"/>
		</g>
		<g>
			<circle class="st11" cx="609.3" cy="577.3" r="1.8"/>
		</g>
		<g>
			<circle class="st11" cx="581" cy="181.7" r="1.8"/>
		</g>
		<g>
			<circle class="st11" cx="581" cy="210" r="1.8"/>
		</g>
		<g>
			<circle class="st11" cx="581" cy="238.2" r="1.8"/>
		</g>
		<g>
			<circle class="st11" cx="581" cy="266.5" r="1.8"/>
		</g>
		<g>
			<circle class="st11" cx="581" cy="294.7" r="1.8"/>
		</g>
		<g>
			<circle class="st11" cx="581" cy="323" r="1.8"/>
		</g>
		<g>
			<circle class="st11" cx="581" cy="351.2" r="1.8"/>
		</g>
		<g>
			<circle class="st11" cx="581" cy="379.5" r="1.8"/>
		</g>
		<g>
			<circle class="st11" cx="581" cy="407.7" r="1.8"/>
		</g>
		<g>
			<circle class="st11" cx="581" cy="436" r="1.8"/>
		</g>
		<g>
			<circle class="st11" cx="581" cy="464.2" r="1.8"/>
		</g>
		<g>
			<circle class="st11" cx="581" cy="492.5" r="1.8"/>
		</g>
		<g>
			<circle class="st11" cx="581" cy="520.7" r="1.8"/>
		</g>
		<g>
			<circle class="st11" cx="581" cy="549" r="1.8"/>
		</g>
		<g>
			<circle class="st11" cx="581" cy="577.3" r="1.8"/>
		</g>
		<g>
			<circle class="st11" cx="552.8" cy="181.7" r="1.8"/>
		</g>
		<g>
			<circle class="st11" cx="552.8" cy="210" r="1.8"/>
		</g>
		<g>
			<circle class="st11" cx="552.8" cy="238.2" r="1.8"/>
		</g>
		<g>
			<circle class="st11" cx="552.8" cy="266.5" r="1.8"/>
		</g>
		<g>
			<circle class="st11" cx="552.8" cy="294.7" r="1.8"/>
		</g>
		<g>
			<circle class="st11" cx="552.8" cy="323" r="1.8"/>
		</g>
		<g>
			<circle class="st11" cx="552.8" cy="351.2" r="1.8"/>
		</g>
		<g>
			<circle class="st11" cx="552.8" cy="379.5" r="1.8"/>
		</g>
		<g>
			<circle class="st11" cx="552.8" cy="407.7" r="1.8"/>
		</g>
		<g>
			<circle class="st11" cx="552.8" cy="436" r="1.8"/>
		</g>
		<g>
			<circle class="st11" cx="552.8" cy="464.2" r="1.8"/>
		</g>
		<g>
			<circle class="st11" cx="552.8" cy="492.5" r="1.8"/>
		</g>
		<g>
			<circle class="st11" cx="552.8" cy="520.7" r="1.8"/>
		</g>
		<g>
			<circle class="st11" cx="552.8" cy="549" r="1.8"/>
		</g>
		<g>
			<circle class="st11" cx="552.8" cy="577.3" r="1.8"/>
		</g>
		<g>
			<circle class="st11" cx="524.5" cy="181.7" r="1.8"/>
		</g>
		<g>
			<circle class="st11" cx="524.5" cy="210" r="1.8"/>
		</g>
		<g>
			<circle class="st11" cx="524.5" cy="238.2" r="1.8"/>
		</g>
		<g>
			<circle class="st11" cx="524.5" cy="266.5" r="1.8"/>
		</g>
		<g>
			<circle class="st11" cx="524.5" cy="294.7" r="1.8"/>
		</g>
		<g>
			<circle class="st11" cx="524.5" cy="323" r="1.8"/>
		</g>
		<g>
			<circle class="st11" cx="524.5" cy="351.2" r="1.8"/>
		</g>
		<g>
			<circle class="st11" cx="524.5" cy="379.5" r="1.8"/>
		</g>
		<g>
			<circle class="st11" cx="524.5" cy="407.7" r="1.8"/>
		</g>
		<g>
			<circle class="st11" cx="524.5" cy="436" r="1.8"/>
		</g>
		<g>
			<circle class="st11" cx="524.5" cy="464.2" r="1.8"/>
		</g>
		<g>
			<circle class="st11" cx="524.5" cy="492.5" r="1.8"/>
		</g>
		<g>
			<circle class="st11" cx="524.5" cy="520.7" r="1.8"/>
		</g>
		<g>
			<circle class="st11" cx="524.5" cy="549" r="1.8"/>
		</g>
		<g>
			<circle class="st11" cx="524.5" cy="577.3" r="1.8"/>
		</g>
		<g>
			<circle class="st11" cx="496.3" cy="181.7" r="1.8"/>
		</g>
		<g>
			<circle class="st11" cx="496.3" cy="210" r="1.8"/>
		</g>
		<g>
			<circle class="st11" cx="496.3" cy="238.2" r="1.8"/>
		</g>
		<g>
			<circle class="st11" cx="496.3" cy="266.5" r="1.8"/>
		</g>
		<g>
			<circle class="st11" cx="496.3" cy="294.7" r="1.8"/>
		</g>
		<g>
			<circle class="st11" cx="496.3" cy="323" r="1.8"/>
		</g>
		<g>
			<circle class="st11" cx="496.3" cy="351.2" r="1.8"/>
		</g>
		<g>
			<circle class="st11" cx="496.3" cy="379.5" r="1.8"/>
		</g>
		<g>
			<circle class="st11" cx="496.3" cy="407.7" r="1.8"/>
		</g>
		<g>
			<circle class="st11" cx="496.3" cy="436" r="1.8"/>
		</g>
		<g>
			<circle class="st11" cx="496.3" cy="464.2" r="1.8"/>
		</g>
		<g>
			<circle class="st11" cx="496.3" cy="492.5" r="1.8"/>
		</g>
		<g>
			<circle class="st11" cx="496.3" cy="520.7" r="1.8"/>
		</g>
		<g>
			<circle class="st11" cx="496.3" cy="549" r="1.8"/>
		</g>
		<g>
			<circle class="st11" cx="496.3" cy="577.3" r="1.8"/>
		</g>
		<g>
			<circle class="st11" cx="468" cy="181.7" r="1.8"/>
		</g>
		<g>
			<circle class="st11" cx="468" cy="210" r="1.8"/>
		</g>
		<g>
			<circle class="st11" cx="468" cy="238.2" r="1.8"/>
		</g>
		<g>
			<circle class="st11" cx="468" cy="266.5" r="1.8"/>
		</g>
		<g>
			<circle class="st11" cx="468" cy="294.7" r="1.8"/>
		</g>
		<g>
			<circle class="st11" cx="468" cy="323" r="1.8"/>
		</g>
		<g>
			<circle class="st11" cx="468" cy="351.2" r="1.8"/>
		</g>
		<g>
			<circle class="st11" cx="468" cy="379.5" r="1.8"/>
		</g>
		<g>
			<circle class="st11" cx="468" cy="407.7" r="1.8"/>
		</g>
		<g>
			<circle class="st11" cx="468" cy="436" r="1.8"/>
		</g>
		<g>
			<circle class="st11" cx="468" cy="464.2" r="1.8"/>
		</g>
		<g>
			<circle class="st11" cx="468" cy="492.5" r="1.8"/>
		</g>
		<g>
			<circle class="st11" cx="468" cy="520.7" r="1.8"/>
		</g>
		<g>
			<circle class="st11" cx="468" cy="549" r="1.8"/>
		</g>
		<g>
			<circle class="st11" cx="468" cy="577.3" r="1.8"/>
		</g>
		<g>
			<circle class="st11" cx="439.7" cy="181.7" r="1.8"/>
		</g>
		<g>
			<circle class="st11" cx="439.7" cy="210" r="1.8"/>
		</g>
		<g>
			<circle class="st11" cx="439.7" cy="238.2" r="1.8"/>
		</g>
		<g>
			<circle class="st11" cx="439.7" cy="266.5" r="1.8"/>
		</g>
		<g>
			<circle class="st11" cx="439.7" cy="294.7" r="1.8"/>
		</g>
		<g>
			<circle class="st11" cx="439.7" cy="323" r="1.8"/>
		</g>
		<g>
			<circle class="st11" cx="439.7" cy="351.2" r="1.8"/>
		</g>
		<g>
			<circle class="st11" cx="439.7" cy="379.5" r="1.8"/>
		</g>
		<g>
			<circle class="st11" cx="439.7" cy="407.7" r="1.8"/>
		</g>
		<g>
			<circle class="st11" cx="439.7" cy="436" r="1.8"/>
		</g>
		<g>
			<circle class="st11" cx="439.7" cy="464.2" r="1.8"/>
		</g>
		<g>
			<circle class="st11" cx="439.7" cy="492.5" r="1.8"/>
		</g>
		<g>
			<circle class="st11" cx="439.7" cy="520.7" r="1.8"/>
		</g>
		<g>
			<circle class="st11" cx="439.7" cy="549" r="1.8"/>
		</g>
		<g>
			<circle class="st11" cx="439.7" cy="577.3" r="1.8"/>
		</g>
		<g>
			<circle class="st11" cx="411.5" cy="181.7" r="1.8"/>
		</g>
		<g>
			<circle class="st11" cx="411.5" cy="210" r="1.8"/>
		</g>
		<g>
			<circle class="st11" cx="411.5" cy="238.2" r="1.8"/>
		</g>
		<g>
			<circle class="st11" cx="411.5" cy="266.5" r="1.8"/>
		</g>
		<g>
			<circle class="st11" cx="411.5" cy="294.7" r="1.8"/>
		</g>
		<g>
			<circle class="st11" cx="411.5" cy="323" r="1.8"/>
		</g>
		<g>
			<circle class="st11" cx="411.5" cy="351.2" r="1.8"/>
		</g>
		<g>
			<circle class="st11" cx="411.5" cy="379.5" r="1.8"/>
		</g>
		<g>
			<circle class="st11" cx="411.5" cy="407.7" r="1.8"/>
		</g>
		<g>
			<circle class="st11" cx="411.5" cy="436" r="1.8"/>
		</g>
		<g>
			<circle class="st11" cx="411.5" cy="464.2" r="1.8"/>
		</g>
		<g>
			<circle class="st11" cx="411.5" cy="492.5" r="1.8"/>
		</g>
		<g>
			<circle class="st11" cx="411.5" cy="520.7" r="1.8"/>
		</g>
		<g>
			<circle class="st11" cx="411.5" cy="549" r="1.8"/>
		</g>
		<g>
			<circle class="st11" cx="411.5" cy="577.3" r="1.8"/>
		</g>
		<g>
			<circle class="st11" cx="383.2" cy="181.7" r="1.8"/>
		</g>
		<g>
			<circle class="st11" cx="383.2" cy="210" r="1.8"/>
		</g>
		<g>
			<circle class="st11" cx="383.2" cy="238.2" r="1.8"/>
		</g>
		<g>
			<circle class="st11" cx="383.2" cy="266.5" r="1.8"/>
		</g>
		<g>
			<circle class="st11" cx="383.2" cy="294.7" r="1.8"/>
		</g>
		<g>
			<circle class="st11" cx="383.2" cy="323" r="1.8"/>
		</g>
		<g>
			<circle class="st11" cx="383.2" cy="351.2" r="1.8"/>
		</g>
		<g>
			<circle class="st11" cx="383.2" cy="379.5" r="1.8"/>
		</g>
		<g>
			<circle class="st11" cx="383.2" cy="407.7" r="1.8"/>
		</g>
		<g>
			<circle class="st11" cx="383.2" cy="436" r="1.8"/>
		</g>
		<g>
			<circle class="st11" cx="383.2" cy="464.2" r="1.8"/>
		</g>
		<g>
			<circle class="st11" cx="383.2" cy="492.5" r="1.8"/>
		</g>
		<g>
			<circle class="st11" cx="383.2" cy="520.7" r="1.8"/>
		</g>
		<g>
			<circle class="st11" cx="383.2" cy="549" r="1.8"/>
		</g>
		<g>
			<circle class="st11" cx="383.2" cy="577.3" r="1.8"/>
		</g>
		<g>
			<circle class="st11" cx="355" cy="181.7" r="1.8"/>
		</g>
		<g>
			<circle class="st11" cx="355" cy="210" r="1.8"/>
		</g>
		<g>
			<circle class="st11" cx="355" cy="238.2" r="1.8"/>
		</g>
		<g>
			<circle class="st11" cx="355" cy="266.5" r="1.8"/>
		</g>
		<g>
			<circle class="st11" cx="355" cy="294.7" r="1.8"/>
		</g>
		<g>
			<circle class="st11" cx="355" cy="323" r="1.8"/>
		</g>
		<g>
			<circle class="st11" cx="355" cy="351.2" r="1.8"/>
		</g>
		<g>
			<circle class="st11" cx="355" cy="379.5" r="1.8"/>
		</g>
		<g>
			<circle class="st11" cx="355" cy="407.7" r="1.8"/>
		</g>
		<g>
			<circle class="st11" cx="355" cy="436" r="1.8"/>
		</g>
		<g>
			<circle class="st11" cx="355" cy="464.2" r="1.8"/>
		</g>
		<g>
			<circle class="st11" cx="355" cy="492.5" r="1.8"/>
		</g>
		<g>
			<circle class="st11" cx="355" cy="520.7" r="1.8"/>
		</g>
		<g>
			<circle class="st11" cx="355" cy="549" r="1.8"/>
		</g>
		<g>
			<circle class="st11" cx="355" cy="577.3" r="1.8"/>
		</g>
		<g>
			<circle class="st11" cx="326.7" cy="181.7" r="1.8"/>
		</g>
		<g>
			<circle class="st11" cx="326.7" cy="210" r="1.8"/>
		</g>
		<g>
			<circle class="st11" cx="326.7" cy="238.2" r="1.8"/>
		</g>
		<g>
			<circle class="st11" cx="326.7" cy="266.5" r="1.8"/>
		</g>
		<g>
			<circle class="st11" cx="326.7" cy="294.7" r="1.8"/>
		</g>
		<g>
			<circle class="st11" cx="326.7" cy="323" r="1.8"/>
		</g>
		<g>
			<circle class="st11" cx="326.7" cy="351.2" r="1.8"/>
		</g>
		<g>
			<circle class="st11" cx="326.7" cy="379.5" r="1.8"/>
		</g>
		<g>
			<circle class="st11" cx="326.7" cy="407.7" r="1.8"/>
		</g>
		<g>
			<circle class="st11" cx="326.7" cy="436" r="1.8"/>
		</g>
		<g>
			<circle class="st11" cx="326.7" cy="464.2" r="1.8"/>
		</g>
		<g>
			<circle class="st11" cx="326.7" cy="492.5" r="1.8"/>
		</g>
		<g>
			<circle class="st11" cx="326.7" cy="520.7" r="1.8"/>
		</g>
		<g>
			<circle class="st11" cx="326.7" cy="549" r="1.8"/>
		</g>
		<g>
			<circle class="st11" cx="326.7" cy="577.3" r="1.8"/>
		</g>
		<g>
			<circle class="st11" cx="298.5" cy="181.7" r="1.8"/>
		</g>
		<g>
			<circle class="st11" cx="298.5" cy="210" r="1.8"/>
		</g>
		<g>
			<circle class="st11" cx="298.5" cy="238.2" r="1.8"/>
		</g>
		<g>
			<circle class="st11" cx="298.5" cy="266.5" r="1.8"/>
		</g>
		<g>
			<circle class="st11" cx="298.5" cy="294.7" r="1.8"/>
		</g>
		<g>
			<circle class="st11" cx="298.5" cy="323" r="1.8"/>
		</g>
		<g>
			<circle class="st11" cx="298.5" cy="351.2" r="1.8"/>
		</g>
		<g>
			<circle class="st11" cx="298.5" cy="379.5" r="1.8"/>
		</g>
		<g>
			<circle class="st11" cx="298.5" cy="407.7" r="1.8"/>
		</g>
		<g>
			<circle class="st11" cx="298.5" cy="436" r="1.8"/>
		</g>
		<g>
			<circle class="st11" cx="298.5" cy="464.2" r="1.8"/>
		</g>
		<g>
			<circle class="st11" cx="298.5" cy="492.5" r="1.8"/>
		</g>
		<g>
			<circle class="st11" cx="298.5" cy="520.7" r="1.8"/>
		</g>
		<g>
			<circle class="st11" cx="298.5" cy="549" r="1.8"/>
		</g>
		<g>
			<circle class="st11" cx="298.5" cy="577.3" r="1.8"/>
		</g>
		<g>
			<circle class="st11" cx="270.2" cy="181.7" r="1.8"/>
		</g>
		<g>
			<circle class="st11" cx="270.2" cy="210" r="1.8"/>
		</g>
		<g>
			<circle class="st11" cx="270.2" cy="238.2" r="1.8"/>
		</g>
		<g>
			<circle class="st11" cx="270.2" cy="266.5" r="1.8"/>
		</g>
		<g>
			<circle class="st11" cx="270.2" cy="294.7" r="1.8"/>
		</g>
		<g>
			<circle class="st11" cx="270.2" cy="323" r="1.8"/>
		</g>
		<g>
			<circle class="st11" cx="270.2" cy="351.2" r="1.8"/>
		</g>
		<g>
			<circle class="st11" cx="270.2" cy="379.5" r="1.8"/>
		</g>
		<g>
			<circle class="st11" cx="270.2" cy="407.7" r="1.8"/>
		</g>
		<g>
			<circle class="st11" cx="270.2" cy="436" r="1.8"/>
		</g>
		<g>
			<circle class="st11" cx="270.2" cy="464.2" r="1.8"/>
		</g>
		<g>
			<circle class="st11" cx="270.2" cy="492.5" r="1.8"/>
		</g>
		<g>
			<circle class="st11" cx="270.2" cy="520.7" r="1.8"/>
		</g>
		<g>
			<circle class="st11" cx="270.2" cy="549" r="1.8"/>
		</g>
		<g>
			<circle class="st11" cx="270.2" cy="577.3" r="1.8"/>
		</g>
		<g>
			<circle class="st11" cx="242" cy="181.7" r="1.8"/>
		</g>
		<g>
			<circle class="st11" cx="242" cy="210" r="1.8"/>
		</g>
		<g>
			<circle class="st11" cx="242" cy="238.2" r="1.8"/>
		</g>
		<g>
			<circle class="st11" cx="242" cy="266.5" r="1.8"/>
		</g>
		<g>
			<circle class="st11" cx="242" cy="294.7" r="1.8"/>
		</g>
		<g>
			<circle class="st11" cx="242" cy="323" r="1.8"/>
		</g>
		<g>
			<circle class="st11" cx="242" cy="351.2" r="1.8"/>
		</g>
		<g>
			<circle class="st11" cx="242" cy="379.5" r="1.8"/>
		</g>
		<g>
			<circle class="st11" cx="242" cy="407.7" r="1.8"/>
		</g>
		<g>
			<circle class="st11" cx="242" cy="436" r="1.8"/>
		</g>
		<g>
			<circle class="st11" cx="242" cy="464.2" r="1.8"/>
		</g>
		<g>
			<circle class="st11" cx="242" cy="492.5" r="1.8"/>
		</g>
		<g>
			<circle class="st11" cx="242" cy="520.7" r="1.8"/>
		</g>
		<g>
			<circle class="st11" cx="242" cy="549" r="1.8"/>
		</g>
		<g>
			<circle class="st11" cx="242" cy="577.3" r="1.8"/>
		</g>
		<g>
			<circle class="st11" cx="213.7" cy="181.7" r="1.8"/>
		</g>
		<g>
			<circle class="st11" cx="213.7" cy="210" r="1.8"/>
		</g>
		<g>
			<circle class="st11" cx="213.7" cy="238.2" r="1.8"/>
		</g>
		<g>
			<circle class="st11" cx="213.7" cy="266.5" r="1.8"/>
		</g>
		<g>
			<circle class="st11" cx="213.7" cy="294.7" r="1.8"/>
		</g>
		<g>
			<circle class="st11" cx="213.7" cy="323" r="1.8"/>
		</g>
		<g>
			<circle class="st11" cx="213.7" cy="351.2" r="1.8"/>
		</g>
		<g>
			<circle class="st11" cx="213.7" cy="379.5" r="1.8"/>
		</g>
		<g>
			<circle class="st11" cx="213.7" cy="407.7" r="1.8"/>
		</g>
		<g>
			<circle class="st11" cx="213.7" cy="436" r="1.8"/>
		</g>
		<g>
			<circle class="st11" cx="213.7" cy="464.2" r="1.8"/>
		</g>
		<g>
			<circle class="st11" cx="213.7" cy="492.5" r="1.8"/>
		</g>
		<g>
			<circle class="st11" cx="213.7" cy="520.7" r="1.8"/>
		</g>
		<g>
			<circle class="st11" cx="213.7" cy="549" r="1.8"/>
		</g>
		<g>
			<circle class="st11" cx="213.7" cy="577.3" r="1.8"/>
		</g>
		<g>
			<circle class="st11" cx="185.5" cy="181.7" r="1.8"/>
		</g>
		<g>
			<circle class="st11" cx="185.5" cy="210" r="1.8"/>
		</g>
		<g>
			<circle class="st11" cx="185.5" cy="238.2" r="1.8"/>
		</g>
		<g>
			<circle class="st11" cx="185.5" cy="266.5" r="1.8"/>
		</g>
		<g>
			<circle class="st11" cx="185.5" cy="294.7" r="1.8"/>
		</g>
		<g>
			<circle class="st11" cx="185.5" cy="323" r="1.8"/>
		</g>
		<g>
			<circle class="st11" cx="185.5" cy="351.2" r="1.8"/>
		</g>
		<g>
			<circle class="st11" cx="185.5" cy="379.5" r="1.8"/>
		</g>
		<g>
			<circle class="st11" cx="185.5" cy="407.7" r="1.8"/>
		</g>
		<g>
			<circle class="st11" cx="185.5" cy="436" r="1.8"/>
		</g>
		<g>
			<circle class="st11" cx="185.5" cy="464.2" r="1.8"/>
		</g>
		<g>
			<circle class="st11" cx="185.5" cy="492.5" r="1.8"/>
		</g>
		<g>
			<circle class="st11" cx="185.5" cy="520.7" r="1.8"/>
		</g>
		<g>
			<circle class="st11" cx="185.5" cy="549" r="1.8"/>
		</g>
		<g>
			<circle class="st11" cx="185.5" cy="577.3" r="1.8"/>
		</g>
		<g>
			<circle class="st11" cx="157.2" cy="181.7" r="1.8"/>
		</g>
		<g>
			<circle class="st11" cx="157.2" cy="210" r="1.8"/>
		</g>
		<g>
			<circle class="st11" cx="157.2" cy="238.2" r="1.8"/>
		</g>
		<g>
			<circle class="st11" cx="157.2" cy="266.5" r="1.8"/>
		</g>
		<g>
			<circle class="st11" cx="157.2" cy="294.7" r="1.8"/>
		</g>
		<g>
			<circle class="st11" cx="157.2" cy="323" r="1.8"/>
		</g>
		<g>
			<circle class="st11" cx="157.2" cy="351.2" r="1.8"/>
		</g>
		<g>
			<circle class="st11" cx="157.2" cy="379.5" r="1.8"/>
		</g>
		<g>
			<circle class="st11" cx="157.2" cy="407.7" r="1.8"/>
		</g>
		<g>
			<circle class="st11" cx="157.2" cy="436" r="1.8"/>
		</g>
		<g>
			<circle class="st11" cx="157.2" cy="464.2" r="1.8"/>
		</g>
		<g>
			<circle class="st11" cx="157.2" cy="492.5" r="1.8"/>
		</g>
		<g>
			<circle class="st11" cx="157.2" cy="520.7" r="1.8"/>
		</g>
		<g>
			<circle class="st11" cx="157.2" cy="549" r="1.8"/>
		</g>
		<g>
			<circle class="st11" cx="157.2" cy="577.3" r="1.8"/>
		</g>
	</g>
	<g>
		<path class="st13" d="M609.7,219.6v-38.6H298.2v38.6h0.7v-37.9H609v37.9H609.7z M609,295.1H298.9v-37.9h-0.7v38.6h311.4l0,0v-38.6
			H609V295.1"/>
		<rect x="298.8" y="219" class="st13" width="310.4" height="0.7"/>
		<rect x="298.8" y="257.2" class="st13" width="310.4" height="0.7"/>
	</g>
	<g>
		<path class="st12" d="M723,294.4L610.4,181.9c14.9,0.2,29.3,3.2,42.9,9c13.6,5.7,25.8,14,36.3,24.4c10.5,10.5,18.7,22.7,24.4,36.3
			C719.8,265.1,722.8,279.6,723,294.4 M723.6,295.9c0-63.4-51.4-114.7-114.7-114.7v0.1l114.6,114.6H723.6L723.6,295.9z"/>
		<path class="st12" d="M665.5,294.3l-55-55h55V294.3 M666.2,295.9v-57.3h-57.3L666.2,295.9L666.2,295.9z"/>
	</g>
	<path class="st5" d="M413.8,521.6c0-15.1,5.9-29.4,16.6-40.1c10.7-10.7,24.9-16.6,40.1-16.6c15.1,0,29.4,5.9,40.1,16.6
		c10.7,10.7,16.6,24.9,16.6,40.1c0,15.1-5.9,29.4-16.6,40.1c-10.7,10.7-24.9,16.6-40.1,16.6h-56.7v-55v0l0,0
		C413.8,522.7,413.8,522.1,413.8,521.6 M496.9,521.6c0-14.5-11.8-26.4-26.4-26.4s-26.4,11.8-26.4,26.4s11.8,26.4,26.4,26.4
		S496.9,536.2,496.9,521.6 M413.1,521.6c0,0.6,0,1.1,0,1.7V579h57.3h0h0c31.7,0,57.4-25.7,57.4-57.4c0-31.7-25.7-57.4-57.4-57.4
		C438.8,464.3,413.1,489.9,413.1,521.6L413.1,521.6z M496.2,521.6c0,14.2-11.5,25.7-25.7,25.7c-14.2,0-25.7-11.5-25.7-25.7
		c0-14.2,11.5-25.7,25.7-25.7C484.7,495.9,496.2,507.4,496.2,521.6L496.2,521.6z"/>
	<path class="st6" d="M609.9,436.7v-55c15.5-0.2,30.1-6.3,41.1-17.3c11-11,17.1-25.6,17.3-41.1h55c-0.1,15.2-3.1,29.9-9,43.7
		c-5.7,13.6-14,25.8-24.4,36.3c-10.5,10.5-22.7,18.7-36.3,24.4C639.8,433.6,625.1,436.6,609.9,436.7 M609.3,437.3
		c63.4,0,114.7-51.4,114.7-114.7h-56.4c0,32.2-26.1,58.4-58.4,58.4V437.3L609.3,437.3z"/>
	<path class="st12" d="M184.8,181.6l55,0c0.2,15.5,6.3,30.1,17.3,41.1c11,11,25.6,17.1,41.1,17.3l0,55c-15.2-0.1-29.9-3.1-43.7-9
		c-13.6-5.7-25.8-14-36.3-24.4c-10.5-10.5-18.7-22.7-24.4-36.3C187.9,211.5,184.9,196.8,184.8,181.6 M184.1,180.9
		c0,63.4,51.4,114.7,114.7,114.7l0-56.4c-32.2,0-58.4-26.1-58.4-58.4L184.1,180.9L184.1,180.9z"/>
	<path class="st6" d="M239.8,180.9h-55c-0.2-15.5-6.3-30.1-17.3-41.1c-11-11-25.6-17.1-41.1-17.3v-55c15.2,0.1,29.9,3.1,43.7,9
		c13.6,5.7,25.8,14,36.3,24.4c10.5,10.5,18.7,22.7,24.4,36.3C236.7,151,239.7,165.7,239.8,180.9 M240.5,181.5
		c0-63.4-51.4-114.7-114.7-114.7v56.4c32.2,0,58.4,26.1,58.4,58.4H240.5L240.5,181.5z"/>
	<path class="st13" d="M299.7,464.6l55,0c0.2,15.5,6.3,30.1,17.3,41.1c11,11,25.6,17.1,41.1,17.3l0,55c-15.2-0.1-29.9-3.1-43.7-9
		c-13.6-5.7-25.8-14-36.3-24.4c-10.5-10.5-18.7-22.7-24.4-36.3C302.8,494.5,299.8,479.8,299.7,464.6 M299.1,464
		c0,63.4,51.4,114.7,114.7,114.7l0-56.4c-32.2,0-58.4-26.1-58.4-58.4L299.1,464L299.1,464z"/>
	<path class="st13" d="M12.5,9.2l55,0c0.2,15.5,6.3,30.1,17.3,41.1s25.6,17.1,41.1,17.3l0,55c-15.2-0.1-29.9-3.1-43.7-9
		c-13.6-5.7-25.8-14-36.3-24.4C35.5,78.7,27.2,66.5,21.5,52.9C15.6,39,12.6,24.3,12.5,9.2 M11.8,8.5c0,63.4,51.4,114.7,114.7,114.7
		l0-56.4c-32.2,0-58.4-26.1-58.4-58.4L11.8,8.5L11.8,8.5z"/>
	<g>
		<g>
			<g>
				<g>
					<path class="st12" d="M610,361.2v-38.6H412.7v38.6h0.7v-37.9h195.9v37.9H610z M609.3,436.7H413.4v-37.9h-0.7v38.6H610l0,0
						v-38.6h-0.7V436.7"/>
				</g>
			</g>
			<g>
				<rect x="413.2" y="360.5" class="st12" width="196.2" height="0.7"/>
			</g>
			<g>
				<rect x="413.2" y="398.7" class="st12" width="196.2" height="0.7"/>
			</g>
		</g>
	</g>
	<g>
		<g>
			<path class="st5" d="M412.8,323.4v113.3H299.5c0.1-15.1,3.1-29.8,9-43.7c5.7-13.6,14-25.8,24.4-36.2
				c10.5-10.5,22.7-18.7,36.2-24.4C382.9,326.5,397.6,323.5,412.8,323.4 M413.5,322.7c-63.3,0-114.7,51.3-114.7,114.7h114.7V322.7
				L413.5,322.7z"/>
		</g>
	</g>
</g>
</svg>
