<?xml version="1.0" encoding="utf-8"?>
<!-- Generator: Adobe Illustrator 22.1.0, SVG Export Plug-In . SVG Version: 6.00 Build 0)  -->
<svg version="1.1" xmlns="http://www.w3.org/2000/svg" xmlns:xlink="http://www.w3.org/1999/xlink" x="0px" y="0px"
	 viewBox="0 0 416 172" style="enable-background:new 0 0 416 172;" xml:space="preserve">
<style type="text/css">
	.st0{display:none;}
	.st1{display:inline;}
	.st2{opacity:0.1;fill:#DE0613;}
	.st3{fill:#ECEFF3;}
	.st4{fill:#1F193D;}
	.st5{fill:#FF2244;}
	.st6{fill:#F597B2;}
	.st7{fill:#9482EE;}
	.st8{fill:#F0CFDA;}
	.st9{fill:#CCCAEB;}
	.st10{fill:#666666;}
	.st11{fill:#1A2028;}
	.st12{fill:#313166;}
	.st13{fill:#710EFF;}
	.st14{fill:#F3F3F3;}
	.st15{fill:#4A5C70;}
	.st16{opacity:0.19;}
	.st17{fill:none;stroke:#FF2244;stroke-miterlimit:10;}
	.st18{fill:#FFFFFF;}
	.st19{fill:#F1F3F7;}
	.st20{opacity:0.8;}
	.st21{fill:#6D6E71;}
	.st22{fill:none;stroke:#FFFFFF;stroke-miterlimit:10;}
	.st23{fill:#F1F3F7;stroke:#9482EE;stroke-width:0.75;stroke-miterlimit:10;}
	.st24{fill:none;stroke:#9482EE;stroke-width:0.7308;stroke-miterlimit:10;}
	.st25{fill:none;stroke:#FF2244;stroke-width:1.25;stroke-linejoin:round;stroke-miterlimit:10;}
	.st26{fill:none;stroke:#FFFFFF;stroke-width:1.1837;stroke-miterlimit:10;}
	.st27{fill:none;}
	.st28{opacity:0.8;fill:none;stroke:#FFFFFF;stroke-width:0.5;stroke-miterlimit:10;}
	.st29{fill:none;stroke:#FF2244;stroke-width:0.8698;stroke-miterlimit:10;}
	.st30{fill:none;stroke:#FF845E;stroke-width:0.8038;stroke-miterlimit:10;}
	.st31{fill:none;stroke:#FF2244;stroke-width:1.3456;stroke-linejoin:round;stroke-miterlimit:10;}
	.st32{fill:none;stroke:#FF2244;stroke-width:1.6354;stroke-linejoin:round;stroke-miterlimit:10;}
	.st33{fill:none;stroke:#FF2244;stroke-width:1.2391;stroke-linejoin:round;stroke-miterlimit:10;}
	.st34{fill:none;stroke:#FF2244;stroke-width:1.1774;stroke-linejoin:round;stroke-miterlimit:10;}
	.st35{fill:none;stroke:#FFFFFF;stroke-width:0.8309;stroke-miterlimit:10;}
	.st36{fill:#F7F5F6;}
	.st37{fill:none;stroke:#1F193D;stroke-width:0.4566;stroke-miterlimit:10;}
	.st38{opacity:0.8;fill:none;stroke:#1F193D;stroke-width:0.5;stroke-miterlimit:10;}
	.st39{fill:#F1F3F7;stroke:#9482EE;stroke-width:0.4538;stroke-miterlimit:10;}
</style>
<g id="grid">
</g>
<g id="_x32_4_Grid_Col_1_" class="st0">
</g>
<g id="BACK">
</g>
<g id="Artwork">
	<path class="st7" d="M241.8,124.7c-11,11-25.6,17-41.1,17c-15.5,0-30.1-6.1-41.1-17c-11-11-17-25.6-17-41.1
		c0-15.5,6.1-30.1,17-41.1c11-11,25.6-17,41.1-17c15.5,0,30.1,6.1,41.1,17l41.1,41.1L243,123.5l0,0l0,0
		C242.5,123.9,242.1,124.4,241.8,124.7 M181.5,64.4c-10.6,10.6-10.6,27.7,0,38.3c10.6,10.6,27.7,10.6,38.3,0
		c10.6-10.6,10.6-27.7,0-38.3C209.2,53.9,192,53.9,181.5,64.4 M242.3,125.2c0.4-0.4,0.8-0.8,1.2-1.3l40.4-40.4L242.3,42l0,0l0,0
		c-23-23-60.3-23-83.3,0s-23,60.3,0,83.3C182,148.2,219.3,148.2,242.3,125.2L242.3,125.2z M182,64.9c10.3-10.3,27-10.3,37.3,0
		c10.3,10.3,10.3,27,0,37.3c-10.3,10.3-27,10.3-37.3,0C171.7,91.9,171.7,75.2,182,64.9L182,64.9z"/>
	<path class="st7" d="M322.1,25.4c15.5,0,30.1,6.1,41.1,17c11,11,17,25.6,17,41.1c0,15.5-6.1,30.1-17,41.1c-11,11-25.6,17-41.1,17
		c-15.5,0-30.1-6.1-41.1-17c-11-11-17-25.6-17-41.1V25.4h56.4h0l0,0C321,25.4,321.6,25.4,322.1,25.4 M322.1,110.7
		c14.9,0,27.1-12.1,27.1-27.1S337,56.5,322.1,56.5c-14.9,0-27.1,12.1-27.1,27.1S307.2,110.7,322.1,110.7 M322.1,24.7
		c-0.6,0-1.2,0-1.8,0h-57.1v58.8v0v0c0,32.5,26.4,58.9,58.9,58.9S381,116.1,381,83.6C381,51.1,354.6,24.7,322.1,24.7L322.1,24.7z
		 M322.1,110c-14.6,0-26.4-11.8-26.4-26.4c0-14.6,11.8-26.4,26.4-26.4c14.6,0,26.4,11.8,26.4,26.4C348.5,98.2,336.7,110,322.1,110
		L322.1,110z"/>
	<path class="st7" d="M58.4,42.5c11-11,25.6-17,41.1-17c15.5,0,30.1,6.1,41.1,17c11,11,17,25.6,17,41.1c0,15.5-6.1,30.1-17,41.1
		c-11,11-25.6,17-41.1,17c-15.5,0-30.1-6.1-41.1-17L17.2,83.6l39.9-39.9l0,0l0,0C57.6,43.2,58,42.8,58.4,42.5 M118.6,102.7
		c10.6-10.6,10.6-27.7,0-38.3s-27.7-10.6-38.3,0s-10.6,27.7,0,38.3S108.1,113.3,118.6,102.7 M57.9,42c-0.4,0.4-0.8,0.8-1.2,1.3
		L16.3,83.6l41.6,41.6l0,0l0,0c23,23,60.3,23,83.3,0s23-60.3,0-83.3C118.1,19,80.9,19,57.9,42L57.9,42z M118.1,102.2
		c-10.3,10.3-27,10.3-37.3,0c-10.3-10.3-10.3-27,0-37.3c10.3-10.3,27-10.3,37.3,0C128.4,75.2,128.4,91.9,118.1,102.2L118.1,102.2z"
		/>
</g>
</svg>
