<?xml version="1.0" encoding="utf-8"?>
<!-- Generator: Adobe Illustrator 22.1.0, SVG Export Plug-In . SVG Version: 6.00 Build 0)  -->
<svg version="1.1" xmlns="http://www.w3.org/2000/svg" xmlns:xlink="http://www.w3.org/1999/xlink" x="0px" y="0px"
	 viewBox="0 0 512 210" style="enable-background:new 0 0 512 210;" xml:space="preserve">
<style type="text/css">
	.st0{display:none;}
	.st1{display:inline;}
	.st2{opacity:0.1;fill:#DE0613;}
	.st3{fill:#ECEFF3;}
	.st4{fill:#1F193D;}
	.st5{fill:#FF2244;}
	.st6{fill:#F597B2;}
	.st7{fill:#9482EE;}
	.st8{fill:#F0CFDA;}
	.st9{fill:#CCCAEB;}
	.st10{fill:#666666;}
	.st11{fill:#1A2028;}
	.st12{fill:#313166;}
	.st13{fill:#710EFF;}
	.st14{fill:#F3F3F3;}
	.st15{fill:#4A5C70;}
	.st16{opacity:0.19;}
	.st17{fill:none;stroke:#FF2244;stroke-miterlimit:10;}
	.st18{fill:#FFFFFF;}
	.st19{fill:#F1F3F7;}
	.st20{opacity:0.8;}
	.st21{fill:#6D6E71;}
	.st22{fill:none;stroke:#FFFFFF;stroke-miterlimit:10;}
	.st23{fill:#F1F3F7;stroke:#9482EE;stroke-width:0.75;stroke-miterlimit:10;}
	.st24{fill:none;stroke:#9482EE;stroke-width:0.7308;stroke-miterlimit:10;}
	.st25{fill:none;stroke:#FF2244;stroke-width:1.25;stroke-linejoin:round;stroke-miterlimit:10;}
	.st26{fill:none;stroke:#FFFFFF;stroke-width:1.1837;stroke-miterlimit:10;}
	.st27{fill:none;}
	.st28{opacity:0.8;fill:none;stroke:#FFFFFF;stroke-width:0.5;stroke-miterlimit:10;}
	.st29{fill:none;stroke:#FF2244;stroke-width:0.8698;stroke-miterlimit:10;}
	.st30{fill:none;stroke:#FF845E;stroke-width:0.8038;stroke-miterlimit:10;}
	.st31{fill:none;stroke:#FF2244;stroke-width:1.3456;stroke-linejoin:round;stroke-miterlimit:10;}
	.st32{fill:none;stroke:#FF2244;stroke-width:1.6354;stroke-linejoin:round;stroke-miterlimit:10;}
	.st33{fill:none;stroke:#FF2244;stroke-width:1.2391;stroke-linejoin:round;stroke-miterlimit:10;}
	.st34{fill:none;stroke:#FF2244;stroke-width:1.1774;stroke-linejoin:round;stroke-miterlimit:10;}
	.st35{fill:none;stroke:#FFFFFF;stroke-width:0.8309;stroke-miterlimit:10;}
	.st36{fill:#F7F5F6;}
	.st37{fill:none;stroke:#1F193D;stroke-width:0.4566;stroke-miterlimit:10;}
	.st38{opacity:0.8;fill:none;stroke:#1F193D;stroke-width:0.5;stroke-miterlimit:10;}
	.st39{fill:#F1F3F7;stroke:#9482EE;stroke-width:0.4538;stroke-miterlimit:10;}
</style>
<g id="grid">
</g>
<g id="_x32_4_Grid_Col_1_" class="st0">
</g>
<g id="BACK">
</g>
<g id="Artwork">
	<g>
		<path class="st7" d="M457,75.1v15.4H152.4V75.1H457 M457.7,74.4h-306v16.8h306V74.4L457.7,74.4z"/>
		<path class="st7" d="M457,41.5v15.4H152.4V41.5H457 M457.7,40.8h-306v16.8h306V40.8L457.7,40.8z"/>
		<path class="st7" d="M457,142.4v15.4H152.4v-15.4H457 M457.7,141.7h-306v16.8h306V141.7L457.7,141.7z"/>
		<path class="st7" d="M457,108.7v15.4H152.4v-15.4H457 M457.7,108.1h-306v16.8h306V108.1L457.7,108.1z"/>
	</g>
	<g>
		<path class="st3" d="M152.4,41.4c15.3,0.2,29.6,6.2,40.4,17c11,11,17,25.6,17,41.1s-6.1,30.1-17,41.1
			c-10.8,10.8-25.2,16.9-40.4,17V41.4"/>
		<path class="st7" d="M152.4,41.4c15.3,0.2,29.6,6.2,40.4,17c11,11,17,25.6,17,41.1s-6.1,30.1-17,41.1
			c-10.8,10.8-25.2,16.9-40.4,17V41.4 M151.7,40.7v117.7c32.5,0,58.9-26.4,58.9-58.9S184.2,40.7,151.7,40.7L151.7,40.7z"/>
	</g>
	<path class="st7" d="M151.7,99.6c0,15.5-6.1,30.1-17,41.1c-11,11-25.6,17-41.1,17c-15.5,0-30.1-6.1-41.1-17c-11-11-17-25.6-17-41.1
		s6.1-30.1,17-41.1c11-11,25.6-17,41.1-17h58.1v56.4v0l0,0C151.7,98.5,151.7,99.1,151.7,99.6 M66.5,99.6c0,14.9,12.1,27.1,27.1,27.1
		s27.1-12.1,27.1-27.1s-12.1-27.1-27.1-27.1S66.5,84.7,66.5,99.6 M152.4,99.6c0-0.6,0-1.2,0-1.8V40.8H93.5h0h0
		c-32.5,0-58.9,26.4-58.9,58.9s26.4,58.9,58.9,58.9C126,158.5,152.4,132.1,152.4,99.6L152.4,99.6z M67.2,99.6
		c0-14.6,11.8-26.4,26.4-26.4c14.6,0,26.4,11.8,26.4,26.4c0,14.6-11.8,26.4-26.4,26.4C79,126,67.2,114.2,67.2,99.6L67.2,99.6z"/>
</g>
</svg>
