<?xml version="1.0" encoding="utf-8"?>
<!-- Generator: Adobe Illustrator 16.0.0, SVG Export Plug-In . SVG Version: 6.00 Build 0)  -->
<!DOCTYPE svg PUBLIC "-//W3C//DTD SVG 1.1//EN" "http://www.w3.org/Graphics/SVG/1.1/DTD/svg11.dtd">
<svg version="1.1" id="Layer_1" xmlns="http://www.w3.org/2000/svg" xmlns:xlink="http://www.w3.org/1999/xlink" x="0px" y="0px"
	 width="16px" height="16px" viewBox="0 0 16 16" enable-background="new 0 0 16 16" xml:space="preserve">
<path fill="none" stroke="#FFFFFF" stroke-width="1.184" stroke-miterlimit="10" d="M6.386,11.35c-0.951-0.95-0.951-2.492,0-3.444
	c0.952-0.952,2.494-0.952,3.446,0c0.951,0.952,0.951,2.494,0,3.444C8.88,12.302,7.337,12.302,6.386,11.35z M15,9.628l-3.444-3.445
	c-1.903-1.903-4.989-1.903-6.892,0c-1.903,1.902-1.903,4.987,0,6.891c1.902,1.902,4.988,1.902,6.892,0L15,9.628z"/>
<path fill="none" stroke="#FFFFFF" stroke-width="1.184" stroke-miterlimit="10" d="M1.315,9.718L4.697,13.1
	c1.868,1.867,4.896,1.867,6.765,0c1.867-1.868,1.867-4.896,0-6.764c-1.869-1.868-4.896-1.868-6.765,0L1.315,9.718z"/>
</svg>
