<?xml version="1.0" encoding="utf-8"?>
<!-- Generator: Adobe Illustrator 22.1.0, SVG Export Plug-In . SVG Version: 6.00 Build 0)  -->
<svg version="1.1" xmlns="http://www.w3.org/2000/svg" xmlns:xlink="http://www.w3.org/1999/xlink" x="0px" y="0px"
	 viewBox="0 0 124.9 36.2" style="enable-background:new 0 0 124.9 36.2;" xml:space="preserve">
<style type="text/css">
	.st0{display:none;}
	.st1{display:inline;}
	.st2{opacity:0.1;fill:#DE0613;}
	.st3{fill:#ECEFF3;}
	.st4{fill:#1F193D;}
	.st5{fill:#FF2244;}
	.st6{fill:#F597B2;}
	.st7{fill:#9482EE;}
	.st8{fill:#F0CFDA;}
	.st9{fill:#CCCAEB;}
	.st10{fill:#666666;}
	.st11{fill:#1A2028;}
	.st12{fill:#313166;}
	.st13{fill:#710EFF;}
	.st14{fill:#F3F3F3;}
	.st15{fill:#4A5C70;}
	.st16{opacity:0.19;}
	.st17{fill:none;stroke:#FF2244;stroke-miterlimit:10;}
	.st18{fill:#FFFFFF;}
	.st19{fill:#F1F3F7;}
	.st20{opacity:0.8;}
	.st21{fill:#6D6E71;}
	.st22{fill:none;stroke:#FFFFFF;stroke-miterlimit:10;}
	.st23{fill:#F1F3F7;stroke:#9482EE;stroke-width:0.75;stroke-miterlimit:10;}
	.st24{fill:none;stroke:#9482EE;stroke-width:0.7308;stroke-miterlimit:10;}
	.st25{fill:none;stroke:#FF2244;stroke-width:1.25;stroke-linejoin:round;stroke-miterlimit:10;}
	.st26{fill:none;stroke:#FFFFFF;stroke-width:1.1837;stroke-miterlimit:10;}
	.st27{fill:none;}
	.st28{opacity:0.8;fill:none;stroke:#FFFFFF;stroke-width:0.5;stroke-miterlimit:10;}
	.st29{fill:none;stroke:#FF2244;stroke-width:0.8698;stroke-miterlimit:10;}
	.st30{fill:none;stroke:#FF845E;stroke-width:0.8038;stroke-miterlimit:10;}
	.st31{fill:none;stroke:#FF2244;stroke-width:1.3456;stroke-linejoin:round;stroke-miterlimit:10;}
	.st32{fill:none;stroke:#FF2244;stroke-width:1.6354;stroke-linejoin:round;stroke-miterlimit:10;}
	.st33{fill:none;stroke:#FF2244;stroke-width:1.2391;stroke-linejoin:round;stroke-miterlimit:10;}
	.st34{fill:none;stroke:#FF2244;stroke-width:1.1774;stroke-linejoin:round;stroke-miterlimit:10;}
	.st35{fill:none;stroke:#FFFFFF;stroke-width:0.8309;stroke-miterlimit:10;}
	.st36{fill:#F7F5F6;}
	.st37{fill:none;stroke:#1F193D;stroke-width:0.4566;stroke-miterlimit:10;}
	.st38{opacity:0.8;fill:none;stroke:#1F193D;stroke-width:0.5;stroke-miterlimit:10;}
	.st39{fill:#F1F3F7;stroke:#9482EE;stroke-width:0.4538;stroke-miterlimit:10;}
</style>
<g id="grid">
</g>
<g id="_x32_4_Grid_Col_1_" class="st0">
</g>
<g id="BACK">
</g>
<g id="Artwork">
	<g>
		<g>
			<path class="st19" d="M0,0h18.7v3.1H3.5v13.3h13v3.1h-13v15.9H0V0z"/>
			<path class="st19" d="M65.7,9.5c6.2,0,9.3,3.6,9.3,3.6l-1.8,2.6c0,0-2.8-3.1-7.4-3.1c-5.6,0-9.9,4.1-9.9,10.2
				c0,6,4.4,10.2,10,10.2c5.2,0,8.1-3.6,8.1-3.6l1.6,2.7c0,0-3.4,4-9.9,4c-7.5,0-13.3-5.4-13.3-13.3C52.3,15,58.2,9.5,65.7,9.5z"/>
			<path class="st19" d="M94.1,9.5c7,0,10.6,5.4,10.6,11.7c0,0.6-0.1,1.8-0.1,1.8H85.1c0.2,6.5,4.6,10.1,9.9,10.1
				c4.7,0,7.7-3.1,7.7-3.1l1.6,2.6c0,0-3.7,3.5-9.4,3.5c-7.6,0-13.3-5.5-13.3-13.3C81.6,14.5,87.2,9.5,94.1,9.5z M101.2,20.2
				c-0.2-5.3-3.4-7.8-7.2-7.8c-4.2,0-7.9,2.7-8.7,7.8H101.2z"/>
			<path class="st19" d="M114.6,13.3h-4.7v-2.9h4.8V1.7h3.4v8.7h6.4v2.9H118v12.6c0,6,3.8,6.7,5.7,6.7c0.7,0,1.2-0.1,1.2-0.1v3.1
				c0,0-0.6,0.1-1.5,0.1c-2.9,0-8.8-1-8.8-9.5V13.3z"/>
		</g>
		<g>
			<path class="st19" d="M43.1,20.7c-0.2-5.3-4.6-8.3-8.4-8.3c-4.2,0-7.9,2.7-8.7,7.8L25.8,23c0.2,6.5,4.6,10.1,9.9,10.1
				c4.7,0,7.7-3.1,7.7-3.1l1.6,2.6c0,0-3.7,3.5-9.4,3.5c-7.6,0-13.3-5.5-13.3-13.3c0-8.3,5.7-13.3,12.5-13.3c7,0,11.3,5.4,11.3,11.7
				c0,0.6-0.1,14.3-0.1,14.3H43"/>
		</g>
	</g>
</g>
</svg>
