<?xml version="1.0" encoding="utf-8"?>
<!-- Generator: Adobe Illustrator 22.1.0, SVG Export Plug-In . SVG Version: 6.00 Build 0)  -->
<svg version="1.1" id="Layer_1" xmlns="http://www.w3.org/2000/svg" xmlns:xlink="http://www.w3.org/1999/xlink" x="0px" y="0px"
	 viewBox="0 0 359.8 432.1" style="enable-background:new 0 0 359.8 432.1;" xml:space="preserve">
<style type="text/css">
	.st0{fill:#FF2244;}
	.st1{fill:#710EFF;}
	.st2{fill:#F597B2;}
	.st3{fill:#9482EE;}
	.st4{fill:#F0CFDA;}
	.st5{fill:#CCCAEB;}
	.st6{fill:#ECEFF3;}
	.st7{fill:#666666;}
	.st8{fill:#1F193D;}
	.st9{fill:#1A2028;}
	.st10{fill:#313166;}
	.st11{fill:#505F70;}
	.st12{fill:#F3F3F3;}
	.st13{fill:#303038;}
	.st14{fill:#231F20;}
	.st15{fill:none;stroke:#303038;stroke-miterlimit:10;}
	.st16{fill:#FFFFFF;}
</style>
<rect x="1231" y="171.6" class="st0" width="130" height="130"/>
<rect x="1417.7" y="171.6" class="st1" width="130" height="130"/>
<rect x="1038" y="171.5" class="st0" width="130" height="130"/>
<rect x="2830.4" y="-22.4" transform="matrix(-1 -1.224647e-16 1.224647e-16 -1 5763.6226 57.9353)" class="st2" width="102.8" height="102.8"/>
<rect x="2830.4" y="-152.5" transform="matrix(-1 -1.224647e-16 1.224647e-16 -1 5763.6226 -202.2096)" class="st3" width="102.8" height="102.8"/>
<rect x="2962.4" y="-22.4" transform="matrix(-1 -1.224647e-16 1.224647e-16 -1 6027.6094 57.9353)" class="st4" width="102.8" height="102.8"/>
<rect x="2962.4" y="-152.5" transform="matrix(-1 -1.224647e-16 1.224647e-16 -1 6027.6094 -202.2096)" class="st5" width="102.8" height="102.8"/>
<g>
	<polygon class="st6" points="2961.4,-178.6 2961.4,-281.4 3064.2,-281.4 3064.2,-178.6 	"/>
	<g>
		<path class="st7" d="M3064.2-281.4v102.7h-102.7v-102.7H3064.2 M3064.2-281.4h-102.8v102.8h102.8V-281.4L3064.2-281.4z"/>
	</g>
</g>
<rect x="2703.4" y="-281" transform="matrix(-1 -1.224647e-16 1.224647e-16 -1 5509.6484 -459.1978)" class="st8" width="102.8" height="102.8"/>
<rect x="2703.4" y="-409" transform="matrix(-1 -1.224647e-16 1.224647e-16 -1 5509.6484 -715.1857)" class="st9" width="102.8" height="102.8"/>
<rect x="2829.9" y="-281" transform="matrix(-1 -1.224647e-16 1.224647e-16 -1 5762.5903 -459.1978)" class="st10" width="102.8" height="102.8"/>
<rect x="2829.9" y="-409.7" transform="matrix(-1 -1.224647e-16 1.224647e-16 -1 5762.5903 -716.5311)" class="st11" width="102.8" height="102.8"/>
<rect x="2701.7" y="-151.7" class="st1" width="102.8" height="102.8"/>
<rect x="2701.7" y="-21.8" class="st0" width="102.8" height="102.8"/>
<g>
	<polygon class="st12" points="2961.6,-306.9 2961.7,-409.7 3064.4,-409.7 3064.4,-306.9 	"/>
	<g>
		<path class="st7" d="M3064.4-409.7v102.7h-102.7v-102.7H3064.4 M3064.4-409.7h-102.8v102.8h102.8V-409.7L3064.4-409.7z"/>
	</g>
</g>
<g>
	<path class="st13" d="M2496.9,172.5l0,128h-128c0.3-34.1,13.7-66.1,37.8-90.2S2462.9,172.7,2496.9,172.5 M2497.9,171.5
		c-71.8,0-130,58.2-130,130h130L2497.9,171.5L2497.9,171.5z"/>
</g>
<g>
	<path class="st14" d="M2309,549.4c-0.3,34.1-13.7,66.1-37.8,90.2c-24.1,24.1-56.1,37.5-90.2,37.8l0-63c35.6-0.5,64.5-29.4,65-65
		H2309 M2310,548.4h-130l0,130C2251.8,678.4,2310,620.2,2310,548.4L2310,548.4z M2180,613.5l0-65h65
		C2245,584.4,2215.9,613.5,2180,613.5L2180,613.5z"/>
</g>
<g>
	<path class="st13" d="M2556.6,172.5c34.8,0.5,63,29,63,64c0,35-28.2,63.5-63,64V172.5 M2555.6,171.5v130c35.9,0,65-29.1,65-65
		S2591.5,171.5,2555.6,171.5L2555.6,171.5z"/>
</g>
<g>
	<path class="st13" d="M2306.5,172.5L2180,299c0.6-33.5,14-65,37.8-88.8S2273,173.1,2306.5,172.5 M2308.9,171.5
		c-71.8,0-130,58.2-130,130L2308.9,171.5L2308.9,171.5z"/>
</g>
<g>
	<path class="st13" d="M2306.5,237.5l-61.6,61.6v-61.6H2306.5 M2308.9,236.5h-65v65L2308.9,236.5L2308.9,236.5z"/>
</g>
<g>
	<path class="st13" d="M2221.9,361.9v127.9h-42V361.9H2221.9 M2222.9,360.9h-44v130h44V360.9L2222.9,360.9z"/>
</g>
<g>
	<path class="st13" d="M2264.9,361.9v127.9h-42V361.9H2264.9 M2265.9,360.9h-44v130h44V360.9L2265.9,360.9z"/>
</g>
<g>
	<path class="st13" d="M2307.9,361.8v127.9h-42V361.8H2307.9 M2308.9,360.8h-44v130h44V360.8L2308.9,360.8z"/>
</g>
<g>
	<path class="st14" d="M2497.2,548.1v24.8h-128v-24.8H2497.2 M2498.2,547.1h-130v26.8h130V547.1L2498.2,547.1z"/>
</g>
<g>
	<path class="st14" d="M2497.2,573.9v24.8h-128v-24.8H2497.2 M2498.2,572.9h-130v26.8h130V572.9L2498.2,572.9z"/>
</g>
<g>
	<path class="st14" d="M2497.2,599.7v24.8h-128v-24.8H2497.2 M2498.2,598.7h-130v26.8h130V598.7L2498.2,598.7z"/>
</g>
<g>
	<path class="st14" d="M2497.2,625.5v24.8h-128v-24.8H2497.2 M2498.2,624.5h-130v26.8h130V624.5L2498.2,624.5z"/>
</g>
<g>
	<path class="st14" d="M2497.2,651.3v24.8h-128v-24.8H2497.2 M2498.2,650.3h-130v26.8h130V650.3L2498.2,650.3z"/>
</g>
<g>
	<path class="st14" d="M2685.2,548.1v24.8h-128v-24.8H2685.2 M2686.2,547.1h-130v26.8h130V547.1L2686.2,547.1z"/>
</g>
<g>
	<path class="st14" d="M2685.2,573.9v24.8h-128v-24.8H2685.2 M2686.2,572.9h-130v26.8h130V572.9L2686.2,572.9z"/>
</g>
<g>
	<path class="st14" d="M2685.2,599.7v24.8h-128v-24.8H2685.2 M2686.2,598.7h-130v26.8h130V598.7L2686.2,598.7z"/>
</g>
<g>
	<path class="st14" d="M2685.2,625.5v24.8h-128v-24.8H2685.2 M2686.2,624.5h-130v26.8h130V624.5L2686.2,624.5z"/>
</g>
<g>
	<path class="st14" d="M2685.2,651.3v24.8h-128v-24.8H2685.2 M2686.2,650.3h-130v26.8h130V650.3L2686.2,650.3z"/>
</g>
<g>
	<path class="st13" d="M2622.3,362.1c35.3,0,64,28.7,64,64s-28.7,64-64,64c-35.3,0-64-28.7-64-64S2587,362.1,2622.3,362.1
		 M2622.3,459.6c18.5,0,33.5-15,33.5-33.5s-15-33.5-33.5-33.5s-33.5,15-33.5,33.5S2603.9,459.6,2622.3,459.6 M2622.3,361.1
		c-35.9,0-65,29.1-65,65c0,35.9,29.1,65,65,65s65-29.1,65-65C2687.3,390.2,2658.2,361.1,2622.3,361.1L2622.3,361.1z M2622.3,458.6
		c-17.9,0-32.5-14.6-32.5-32.5c0-17.9,14.6-32.5,32.5-32.5s32.5,14.6,32.5,32.5C2654.8,444,2640.3,458.6,2622.3,458.6L2622.3,458.6z
		"/>
</g>
<g>
	<path class="st13" d="M2430.6,362.1L2430.6,362.1l2.4,0c35.3,0,64,28.7,64,64c0,35.3-28.7,64-64,64c-35.3,0-64-28.7-64-64
		c0-0.2,0-0.3,0-0.5c0-0.1,0-0.3,0-0.4l0-63.1H2430.6 M2433,459.6c18.5,0,33.5-15,33.5-33.5s-15-33.5-33.5-33.5
		c-18.5,0-33.5,15-33.5,33.5S2414.5,459.6,2433,459.6 M2433,361.1h-65l0,64.1c0,0.3,0,0.6,0,0.9c0,35.9,29.1,65,65,65
		c35.9,0,65-29.1,65-65C2498,390.2,2468.9,361.1,2433,361.1L2433,361.1L2433,361.1z M2433,458.6c-17.9,0-32.5-14.6-32.5-32.5
		c0-17.9,14.6-32.5,32.5-32.5s32.5,14.6,32.5,32.5C2465.5,444,2450.9,458.6,2433,458.6L2433,458.6z"/>
</g>
<polygon class="st1" points="1168,171.5 1168,301.5 1038,301.5 "/>
<polygon class="st0" points="1169,548.5 1169,678.5 1039,678.5 "/>
<path class="st8" d="M1039,548.5h130c0,71.8-58.2,130-130,130L1039,548.5z"/>
<polygon class="st0" points="1231.1,426.1 1231.1,361.1 1296.1,361.1 "/>
<path class="st8" d="M1361,301.5h-130c0-71.8,58.2-130,130-130L1361,301.5z"/>
<path class="st1" d="M1039,548.5h65c0,35.9-29.1,65-65,65L1039,548.5z"/>
<path class="st8" d="M1417.7,171.5c35.9,0,65,29.1,65,65s-29.1,65-65,65V171.5z"/>
<path class="st8" d="M1038,301.5c0-71.8,58.2-130,130-130"/>
<polygon class="st8" points="1103,301.5 1103,236.5 1168,236.5 "/>
<rect x="1038" y="360.8" class="st8" width="43.3" height="130"/>
<rect x="1081.3" y="360.8" class="st0" width="43.3" height="130"/>
<rect x="1124.7" y="360.8" class="st8" width="43.3" height="130"/>
<rect x="1283.3" y="495.1" transform="matrix(-1.836970e-16 1 -1 -1.836970e-16 1856.3635 -736.1624)" class="st8" width="26" height="129.9"/>
<rect x="1283.3" y="521.1" transform="matrix(-1.836970e-16 1 -1 -1.836970e-16 1882.3655 -710.1606)" class="st0" width="26" height="129.9"/>
<rect x="1283.3" y="547.1" transform="matrix(-1.836970e-16 1 -1 -1.836970e-16 1908.3655 -684.1605)" class="st8" width="26" height="129.9"/>
<rect x="1283.3" y="573.1" transform="matrix(-1.836970e-16 1 -1 -1.836970e-16 1934.364 -658.162)" class="st0" width="26" height="129.9"/>
<rect x="1283.3" y="599.1" transform="matrix(-1.836970e-16 1 -1 -1.836970e-16 1960.3641 -632.1619)" class="st8" width="26" height="129.9"/>
<circle class="st0" cx="1484.4" cy="426.1" r="65"/>
<circle class="st1" cx="1484.4" cy="426.1" r="32.5"/>
<circle class="st8" cx="1296.1" cy="426.1" r="65"/>
<circle class="st1" cx="1296.1" cy="426.1" r="32.5"/>
<path class="st13" d="M1356-1117.1v130c-71.8,0-130-58.2-130-130L1356-1117.1z"/>
<path class="st13" d="M1161-857.1c0,35.9-29.1,65-65,65l0,65c71.8,0,130-58.2,130-130H1161z"/>
<path class="st13" d="M1356-1117.1c35.9,0,65,29.1,65,65s-29.1,65-65,65V-1117.1z"/>
<path class="st13" d="M1096-987.1c0-71.8,58.2-130,130-130L1096-987.1z"/>
<polygon class="st13" points="1161,-987.1 1161,-1052.1 1226,-1052.1 "/>
<rect x="1096" y="-987.1" class="st13" width="43.3" height="130"/>
<rect x="1182.7" y="-987.1" class="st13" width="43.3" height="130"/>
<path class="st13" d="M1290.9-987.1h-65l0,65c0,0,0,0,0,0c0,35.9,29.1,65,65,65c35.9,0,65-29.1,65-65
	C1355.9-958,1326.8-987.1,1290.9-987.1z M1290.9-889.6c-17.9,0-32.5-14.6-32.5-32.5c0-17.9,14.6-32.5,32.5-32.5s32.5,14.6,32.5,32.5
	C1323.4-904.2,1308.9-889.6,1290.9-889.6z"/>
<path class="st0" d="M1758-1117.1v130c-71.8,0-130-58.2-130-130L1758-1117.1z"/>
<path class="st0" d="M1563-857.1c0,35.9-29.1,65-65,65l0,65c71.8,0,130-58.2,130-130H1563z"/>
<path class="st0" d="M1758-1117.1c35.9,0,65,29.1,65,65s-29.1,65-65,65V-1117.1z"/>
<path class="st0" d="M1498-987.1c0-71.8,58.2-130,130-130L1498-987.1z"/>
<polygon class="st0" points="1563,-987.1 1563,-1052.1 1628,-1052.1 "/>
<rect x="1498" y="-987.1" class="st0" width="43.3" height="130"/>
<rect x="1584.7" y="-987.1" class="st0" width="43.3" height="130"/>
<path class="st0" d="M1692.9-987.1h-65l0,65c0,0,0,0,0,0c0,35.9,29.1,65,65,65c35.9,0,65-29.1,65-65
	C1757.9-958,1728.8-987.1,1692.9-987.1z M1692.9-889.6c-17.9,0-32.5-14.6-32.5-32.5c0-17.9,14.6-32.5,32.5-32.5
	c17.9,0,32.5,14.6,32.5,32.5C1725.4-904.2,1710.9-889.6,1692.9-889.6z"/>
<path class="st1" d="M2164-1117.1v130c-71.8,0-130-58.2-130-130L2164-1117.1z"/>
<path class="st1" d="M1969-857.1c0,35.9-29.1,65-65,65l0,65c71.8,0,130-58.2,130-130H1969z"/>
<path class="st1" d="M2164-1117.1c35.9,0,65,29.1,65,65s-29.1,65-65,65V-1117.1z"/>
<path class="st1" d="M1904-987.1c0-71.8,58.2-130,130-130L1904-987.1z"/>
<polygon class="st1" points="1969,-987.1 1969,-1052.1 2034,-1052.1 "/>
<rect x="1904" y="-987.1" class="st1" width="43.3" height="130"/>
<rect x="1990.6" y="-987.1" class="st1" width="43.3" height="130"/>
<path class="st1" d="M2098.9-987.1h-65l0,65c0,0,0,0,0,0c0,35.9,29.1,65,65,65c35.9,0,65-29.1,65-65
	C2163.9-958,2134.8-987.1,2098.9-987.1z M2098.9-889.6c-17.9,0-32.5-14.6-32.5-32.5c0-17.9,14.6-32.5,32.5-32.5
	c17.9,0,32.5,14.6,32.5,32.5C2131.4-904.2,2116.9-889.6,2098.9-889.6z"/>
<path class="st15" d="M2567-1117.1v130c-71.8,0-130-58.2-130-130L2567-1117.1z"/>
<path class="st15" d="M2372-857.1c0,35.9-29.1,65-65,65l0,65c71.8,0,130-58.2,130-130H2372z"/>
<path class="st15" d="M2567-1117.1c35.9,0,65,29.1,65,65s-29.1,65-65,65V-1117.1z"/>
<path class="st15" d="M2307-987.1c0-71.8,58.2-130,130-130L2307-987.1z"/>
<polygon class="st15" points="2372,-987.1 2372,-1052.1 2437,-1052.1 "/>
<rect x="2307" y="-987.1" class="st15" width="43.3" height="130"/>
<rect x="2393.6" y="-987.1" class="st15" width="43.3" height="130"/>
<path class="st15" d="M2501.9-987.1h-65l0,65c0,0,0,0,0,0c0,35.9,29.1,65,65,65s65-29.1,65-65C2566.9-958,2537.8-987.1,2501.9-987.1
	z M2501.9-889.6c-17.9,0-32.5-14.6-32.5-32.5c0-17.9,14.6-32.5,32.5-32.5s32.5,14.6,32.5,32.5
	C2534.4-904.2,2519.8-889.6,2501.9-889.6z"/>
<rect x="1226" y="-418" transform="matrix(6.123234e-17 -1 1 6.123234e-17 1644.0081 937.9935)" class="st0" width="130" height="130"/>
<polygon class="st1" points="1226,-418 1226,-288 1096,-288 "/>
<path class="st8" d="M1096-158h130c0,71.8-58.2,130-130,130L1096-158z"/>
<polygon class="st0" points="1225.9,-223 1225.9,-288 1290.9,-288 "/>
<path class="st8" d="M1356-418v130c-71.8,0-130-58.2-130-130L1356-418z"/>
<path class="st1" d="M1096-158h65c0,35.9-29.1,65-65,65L1096-158z"/>
<path class="st8" d="M1356-418c35.9,0,65,29.1,65,65s-29.1,65-65,65V-418z"/>
<path class="st8" d="M1096-288c0-71.8,58.2-130,130-130L1096-288z"/>
<polygon class="st8" points="1161,-288 1161,-353 1226,-353 "/>
<rect x="1096" y="-288" class="st8" width="43.3" height="130"/>
<rect x="1139.3" y="-288" class="st0" width="43.3" height="130"/>
<rect x="1182.7" y="-288" class="st8" width="43.3" height="130"/>
<circle class="st8" cx="1290.9" cy="-223" r="65"/>
<circle class="st1" cx="1290.9" cy="-223" r="32.5"/>
<rect x="150" y="18" transform="matrix(6.123234e-17 -1 1 6.123234e-17 132.0081 297.9935)" class="st0" width="130" height="130"/>
<polygon class="st1" points="150,18 150,148 20,148 "/>
<path class="st8" d="M20,278h130c0,71.8-58.2,130-130,130L20,278z"/>
<polygon class="st0" points="149.9,213 149.9,148 214.9,148 "/>
<path class="st8" d="M280,18v130c-71.8,0-130-58.2-130-130L280,18z"/>
<path class="st1" d="M20,278h65c0,35.9-29.1,65-65,65L20,278z"/>
<path class="st8" d="M280,18c35.9,0,65,29.1,65,65s-29.1,65-65,65V18z"/>
<path class="st8" d="M20,148C20,76.2,78.2,18,150,18L20,148z"/>
<polygon class="st8" points="85,148 85,83 150,83 "/>
<rect x="20" y="148" class="st8" width="43.3" height="130"/>
<rect x="63.3" y="148" class="st0" width="43.3" height="130"/>
<rect x="106.7" y="148" class="st8" width="43.3" height="130"/>
<circle class="st8" cx="214.9" cy="213" r="65"/>
<circle class="st1" cx="214.9" cy="213" r="32.5"/>
<rect x="1621.5" y="-418" transform="matrix(6.123234e-17 -1 1 6.123234e-17 2039.4873 1333.4728)" class="st1" width="130" height="130"/>
<polygon class="st1" points="1621.5,-418 1621.5,-288 1491.5,-288 "/>
<path class="st0" d="M1491.5-158h130c0,71.8-58.2,130-130,130L1491.5-158z"/>
<polygon class="st0" points="1621.4,-223 1621.4,-288 1686.4,-288 "/>
<path class="st8" d="M1751.5-418v130c-71.8,0-130-58.2-130-130L1751.5-418z"/>
<path class="st1" d="M1491.5-158h65c0,35.9-29.1,65-65,65L1491.5-158z"/>
<path class="st0" d="M1751.5-418c35.9,0,65,29.1,65,65s-29.1,65-65,65V-418z"/>
<path class="st0" d="M1491.5-288c0-71.8,58.2-130,130-130L1491.5-288z"/>
<polygon class="st0" points="1556.5,-288 1556.5,-353 1621.5,-353 "/>
<rect x="1491.5" y="-288" class="st8" width="43.3" height="130"/>
<rect x="1534.8" y="-288" class="st1" width="43.3" height="130"/>
<rect x="1578.1" y="-288" class="st8" width="43.3" height="130"/>
<circle class="st8" cx="1686.4" cy="-223" r="65"/>
<circle class="st1" cx="1686.4" cy="-223" r="32.5"/>
<rect x="2024.5" y="-418" transform="matrix(6.123234e-17 -1 1 6.123234e-17 2442.4668 1736.4523)" class="st0" width="130" height="130"/>
<polygon class="st0" points="2024.5,-418 2024.5,-288 1894.5,-288 "/>
<path class="st1" d="M1894.5-158h130c0,71.8-58.2,130-130,130L1894.5-158z"/>
<polygon class="st1" points="2024.4,-223 2024.4,-288 2089.4,-288 "/>
<path class="st8" d="M2154.5-418v130c-71.8,0-130-58.2-130-130L2154.5-418z"/>
<path class="st0" d="M1894.5-158h65c0,35.9-29.1,65-65,65L1894.5-158z"/>
<path class="st1" d="M2154.5-418c35.9,0,65,29.1,65,65s-29.1,65-65,65V-418z"/>
<path class="st1" d="M1894.5-288c0-71.8,58.2-130,130-130L1894.5-288z"/>
<polygon class="st1" points="1959.5,-288 1959.5,-353 2024.5,-353 "/>
<rect x="1894.5" y="-288" class="st8" width="43.3" height="130"/>
<rect x="1937.8" y="-288" class="st0" width="43.3" height="130"/>
<rect x="1981.1" y="-288" class="st8" width="43.3" height="130"/>
<circle class="st8" cx="2089.4" cy="-223" r="65"/>
<circle class="st0" cx="2089.4" cy="-223" r="32.5"/>
<rect x="2428.5" y="-418" transform="matrix(6.123234e-17 -1 1 6.123234e-17 2846.4658 2140.4512)" class="st8" width="130" height="130"/>
<polygon class="st8" points="2428.5,-418 2428.5,-288 2298.5,-288 "/>
<path class="st1" d="M2298.5-158h130c0,71.8-58.2,130-130,130L2298.5-158z"/>
<polygon class="st8" points="2428.4,-223 2428.4,-288 2493.4,-288 "/>
<path class="st0" d="M2558.5-418v130c-71.8,0-130-58.2-130-130L2558.5-418z"/>
<path class="st8" d="M2298.5-158h65c0,35.9-29.1,65-65,65L2298.5-158z"/>
<path class="st8" d="M2558.5-418c35.9,0,65,29.1,65,65s-29.1,65-65,65V-418z"/>
<path class="st1" d="M2298.5-288c0-71.8,58.2-130,130-130L2298.5-288z"/>
<polygon class="st1" points="2363.5,-288 2363.5,-353 2428.5,-353 "/>
<rect x="2298.5" y="-288" class="st0" width="43.3" height="130"/>
<rect x="2341.8" y="-288" class="st8" width="43.3" height="130"/>
<rect x="2385.1" y="-288" class="st0" width="43.3" height="130"/>
<circle class="st1" cx="2493.4" cy="-223" r="65"/>
<circle class="st0" cx="2493.4" cy="-223" r="32.5"/>
<rect x="1470.2" y="495.1" transform="matrix(-1.836970e-16 1 -1 -1.836970e-16 2043.3445 -923.1433)" class="st8" width="26" height="129.9"/>
<rect x="1470.3" y="521.1" transform="matrix(-1.836970e-16 1 -1 -1.836970e-16 2069.4019 -897.2006)" class="st16" width="26" height="129.9"/>
<rect x="1470.3" y="547.1" transform="matrix(-1.836970e-16 1 -1 -1.836970e-16 2095.3826 -871.1815)" class="st8" width="26" height="129.9"/>
<rect x="1470.2" y="573.1" transform="matrix(-1.836970e-16 1 -1 -1.836970e-16 2121.3254 -845.1242)" class="st16" width="26" height="129.9"/>
<rect x="1470.3" y="599.1" transform="matrix(-1.836970e-16 1 -1 -1.836970e-16 2147.3635 -819.1624)" class="st8" width="26" height="129.9"/>
<path class="st0" d="M1418.3,547.5c35.9,0,65,29.1,65,65s-29.1,65-65,65V547.5z"/>
<polygon class="st16" points="1738,171.5 1738,301.5 1608,301.5 "/>
<polygon class="st16" points="1739,548.5 1739,678.5 1609,678.5 "/>
<path class="st13" d="M1608.7,548.5h130c0,71.8-58.2,130-130,130L1608.7,548.5z"/>
<polygon class="st13" points="1801,426.1 1801,361.1 1866,361.1 "/>
<path class="st13" d="M1931,301.5h-130c0-71.8,58.2-130,130-130L1931,301.5z"/>
<path class="st16" d="M1608.7,548.5h65c0,35.9-29.1,65-65,65L1608.7,548.5z"/>
<path class="st13" d="M1987.6,171.5c35.9,0,65,29.1,65,65s-29.1,65-65,65V171.5z"/>
<path class="st13" d="M1608,301.5c0-71.8,58.2-130,130-130"/>
<polygon class="st13" points="1673,301.5 1673,236.5 1738,236.5 "/>
<rect x="1607.9" y="360.8" class="st13" width="43.3" height="129.9"/>
<rect x="1651.2" y="360.8" class="st16" width="43.3" height="129.9"/>
<rect x="1694.5" y="360.8" class="st13" width="43.3" height="129.9"/>
<rect x="1853.3" y="495.1" transform="matrix(-1.836970e-16 1 -1 -1.836970e-16 2426.4392 -1306.2382)" class="st13" width="26" height="129.9"/>
<rect x="1853.3" y="521.1" transform="matrix(-1.836970e-16 1 -1 -1.836970e-16 2452.3647 -1280.1598)" class="st16" width="26" height="129.9"/>
<rect x="1853.3" y="547.1" transform="matrix(-1.836970e-16 1 -1 -1.836970e-16 2478.3667 -1254.1617)" class="st13" width="26" height="129.9"/>
<rect x="1853.3" y="573.1" transform="matrix(-1.836970e-16 1 -1 -1.836970e-16 2504.3633 -1228.1613)" class="st16" width="26" height="129.9"/>
<rect x="1853.3" y="599.1" transform="matrix(-1.836970e-16 1 -1 -1.836970e-16 2530.3652 -1202.1631)" class="st13" width="26" height="129.9"/>
<circle class="st13" cx="2054.4" cy="426.1" r="65"/>
<circle class="st16" cx="2054.4" cy="426.1" r="32.5"/>
<circle class="st13" cx="1866" cy="426.1" r="65"/>
<circle class="st16" cx="1866" cy="426.1" r="32.5"/>
<rect x="2040.3" y="495.1" transform="matrix(-1.836970e-16 1 -1 -1.836970e-16 2613.4392 -1493.2382)" class="st13" width="26" height="129.9"/>
<rect x="2040.3" y="521.1" transform="matrix(-1.836970e-16 1 -1 -1.836970e-16 2639.3647 -1467.1598)" class="st16" width="26" height="129.9"/>
<rect x="2040.3" y="547.1" transform="matrix(-1.836970e-16 1 -1 -1.836970e-16 2665.3667 -1441.1617)" class="st13" width="26" height="129.9"/>
<rect x="2040.3" y="573.1" transform="matrix(-1.836970e-16 1 -1 -1.836970e-16 2691.3633 -1415.1613)" class="st16" width="26" height="129.9"/>
<rect x="2040.3" y="599.1" transform="matrix(-1.836970e-16 1 -1 -1.836970e-16 2717.3652 -1389.1631)" class="st13" width="26" height="129.9"/>
<path class="st13" d="M1988.3,547.5c35.9,0,65,29.1,65,65s-29.1,65-65,65V547.5z"/>
<g>
	<path class="st16" d="M2556.7,547.7c35.3,0.3,64,29.1,64,64.5s-28.7,64.2-64,64.5V547.7z"/>
	<g>
		<path class="st14" d="M2557.2,548.2c34.8,0.5,63,29,63,64s-28.2,63.4-63,64V548.2 M2556.2,547.1v130c35.9,0,65-29.1,65-65
			S2592.1,547.1,2556.2,547.1L2556.2,547.1z"/>
	</g>
</g>
<g>
	<polygon class="st13" points="15.4,-211.5 40,-211.5 40,-323.6 131.8,-323.6 131.8,-345.6 40,-345.6 40,-439.6 147.1,-439.6 
		147.1,-461.6 15.4,-461.6 	"/>
	<path class="st13" d="M479-228.9c-39.5,0-70.5-29.9-70.5-71.9c0-42.7,30.6-71.9,69.7-71.9c32.4,0,52.3,21.7,52.3,21.7l12.5-18.1
		c0,0-21.7-25.6-65.5-25.6c-52.7,0-93.9,38.8-93.9,93.9c0,55.5,40.9,93.6,93.9,93.6c45.5,0,69.7-28.1,69.7-28.1l-11-18.9
		C536.3-254.2,515.3-228.9,479-228.9z"/>
	<path class="st13" d="M677.6-394.7c-48.4,0-88.2,35.2-88.2,93.9c0,55.1,40.2,93.6,93.6,93.6c40.2,0,66.2-24.9,66.2-24.9l-11-18.5
		c0,0-21.7,21.7-54.4,21.7c-37,0-68.3-24.9-69.4-70.8h137.3c0,0,0.7-8.2,0.7-12.4C752.4-356.7,727.1-394.7,677.6-394.7z
		 M615.4-319.7c5.7-35.9,31.7-54.8,61.6-54.8c26.7,0,49.5,17.4,50.9,54.8H615.4z"/>
	<path class="st13" d="M886.1-231.8c-13.5,0-40.2-5.3-40.2-47.3v-89h44.8v-20.3h-44.8v-61.2H822v61.2h-33.5v20.3h33.1v91.4
		c0,59.8,41.6,66.5,62.3,66.5c6.4,0,10.3-0.7,10.3-0.7v-21.7C894.3-232.5,891.1-231.8,886.1-231.8z"/>
	<path class="st13" d="M260.6-394.6c-48.4,0-88.2,35.2-88.2,93.9c0,55.1,40.2,93.6,93.6,93.6c23,0,41.3-8.2,52.8-15.1l0,11.1h21.5
		c0,0,0-96.6,0-100.9C340.2-356.5,310-394.6,260.6-394.6z M318.8-248.4c-6.4,5.4-25.7,19.6-52.1,19.6c-37,0-68.3-24.9-69.4-70.8
		l1.1-19.9c5.7-35.9,31.7-54.8,61.6-54.8c26.7,0,57.5,21.2,58.9,58.5L318.8-248.4z"/>
</g>
</svg>
