<?xml version="1.0" encoding="utf-8"?>
<!-- Generator: Adobe Illustrator 22.1.0, SVG Export Plug-In . SVG Version: 6.00 Build 0)  -->
<svg version="1.1" id="Layer_1" xmlns="http://www.w3.org/2000/svg" xmlns:xlink="http://www.w3.org/1999/xlink" x="0px" y="0px"
	 viewBox="0 0 359.8 432.1" style="enable-background:new 0 0 359.8 432.1;" xml:space="preserve">
<style type="text/css">
	.st0{fill:#1F193D;}
	.st1{fill:#710EFF;}
	.st2{fill:#FF2244;}
</style>
<path class="st0" d="M106.7,148v130H20v130c71.8,0,130-58.2,130-130V148H106.7z"/>
<polygon class="st1" points="150,18 150,148 20,148 "/>
<polygon class="st2" points="280,18 150,18 150,148 150,148 150,212.7 214.8,148 280,148 "/>
<path class="st1" d="M20,278h65c0,35.9-29.1,65-65,65V278z"/>
<path class="st0" d="M280,18H150c0,71.8,58.2,130,130,130c35.9,0,65-29.1,65-65S315.9,18,280,18z"/>
<path class="st0" d="M20,148C20,76.2,78.2,18,150,18L20,148z"/>
<polygon class="st0" points="85,148 85,83 150,83 "/>
<rect x="20" y="148" class="st0" width="43.3" height="130"/>
<rect x="63.3" y="148" class="st2" width="43.4" height="130"/>
<circle class="st0" cx="214.9" cy="213" r="65"/>
<circle class="st1" cx="214.9" cy="213" r="32.5"/>
</svg>
