<?xml version="1.0" encoding="utf-8"?>
<!-- Generator: Adobe Illustrator 22.1.0, SVG Export Plug-In . SVG Version: 6.00 Build 0)  -->
<svg version="1.1" id="Layer_1" xmlns="http://www.w3.org/2000/svg" xmlns:xlink="http://www.w3.org/1999/xlink" x="0px" y="0px"
	 viewBox="0 0 999.1 378" style="enable-background:new 0 0 999.1 378;" xml:space="preserve">
<style type="text/css">
	.st0{fill:#FF2244;}
	.st1{fill:#710EFF;}
	.st2{fill:#F597B2;}
	.st3{fill:#9482EE;}
	.st4{fill:#F0CFDA;}
	.st5{fill:#CCCAEB;}
	.st6{fill:#ECEFF3;}
	.st7{fill:#666666;}
	.st8{fill:#1F193D;}
	.st9{fill:#1A2028;}
	.st10{fill:#313166;}
	.st11{fill:#505F70;}
	.st12{fill:#F3F3F3;}
	.st13{fill:#303038;}
	.st14{fill:#231F20;}
	.st15{fill:none;stroke:#303038;stroke-miterlimit:10;}
	.st16{fill:#FFFFFF;}
</style>
<g>
	<polygon class="st13" points="66,311.6 90.6,311.6 90.6,199.5 182.3,199.5 182.3,177.4 90.6,177.4 90.6,83.5 197.7,83.5 
		197.7,61.4 66,61.4 	"/>
	<path class="st13" d="M529.6,294.1c-39.5,0-70.5-29.9-70.5-71.9c0-42.7,30.6-71.9,69.7-71.9c32.4,0,52.3,21.7,52.3,21.7l12.5-18.1
		c0,0-21.7-25.6-65.5-25.6c-52.7,0-93.9,38.8-93.9,93.9c0,55.5,40.9,93.6,93.9,93.6c45.5,0,69.7-28.1,69.7-28.1l-11-18.9
		C586.9,268.9,565.9,294.1,529.6,294.1z"/>
	<path class="st13" d="M728.2,128.3c-48.4,0-88.2,35.2-88.2,93.9c0,55.1,40.2,93.6,93.6,93.6c40.2,0,66.2-24.9,66.2-24.9l-11-18.5
		c0,0-21.7,21.7-54.4,21.7c-37,0-68.3-24.9-69.4-70.8h137.3c0,0,0.7-8.2,0.7-12.4C802.9,166.4,777.7,128.3,728.2,128.3z
		 M665.9,203.4c5.7-35.9,31.7-54.8,61.6-54.8c26.7,0,49.5,17.4,50.9,54.8H665.9z"/>
	<path class="st13" d="M936.7,291.3c-13.5,0-40.2-5.3-40.2-47.3v-89h44.8v-20.3h-44.8V73.5h-23.8v61.2h-33.5V155h33.1v91.4
		c0,59.8,41.6,66.5,62.3,66.5c6.4,0,10.3-0.7,10.3-0.7v-21.7C944.8,290.6,941.6,291.3,936.7,291.3z"/>
	<path class="st13" d="M311.2,128.4c-48.4,0-88.2,35.2-88.2,93.9c0,55.1,40.2,93.6,93.6,93.6c23,0,41.3-8.2,52.8-15.1l0,11.1h21.5
		c0,0,0-96.6,0-100.9C390.8,166.5,360.6,128.4,311.2,128.4z M369.3,274.6c-6.4,5.4-25.7,19.6-52.1,19.6c-37,0-68.3-24.9-69.4-70.8
		l1.1-19.9c5.7-35.9,31.7-54.8,61.6-54.8c26.7,0,57.5,21.2,58.9,58.5L369.3,274.6z"/>
</g>
</svg>
